<ttFont>
          <CharString index="0">
            -92 -18 -49 -97 -102 hhcurveto
            -72 -23 38 58 36 5 36 8 40 hvcurveto
            55 282 -98 callsubr
            -55 -281 rlineto
            -7 -37 -6 -37 -32 vvcurveto
            -98 52 -71 146 return
          </CharString>
          <CharString index="1">
            rmoveto
            22 callsubr
            53 callsubr
            -99 callsubr
            -50 hlineto
            return
          </CharString>
          <CharString index="2">
            hlineto
            -106 callgsubr
            return
          </CharString>
          <CharString index="3">
            -9 -45 76 -23 -58 -301 rlineto
            -107 callsubr
            return
          </CharString>
          <CharString index="4">
            rmoveto
            103 31 67 70 14 hvcurveto
            -54 hlineto
            -30 -8 -10 -31 -64 hhcurveto
            -47 -5 20 23 5 1 8 1 5 hvcurveto
            -56 hlineto
            -5 -14 -4 -19 -15 vvcurveto
            -49 25 -40 78 vhcurveto
            return
          </CharString>
          <CharString index="5">
            -106 callsubr
            endchar
          </CharString>
          <CharString index="6">
            -107 callgsubr
            endchar
          </CharString>
          <CharString index="7">
            rmoveto
            60 310 -10 callgsubr
            -233 -105 callsubr
            return
          </CharString>
          <CharString index="8">
            -73 callsubr
            465 hlineto
            31 162 rlineto
            -53 hlineto
            -42 -93 rlineto
            -173 hlineto
            41 212 rlineto
            101 hlineto
            5 -69 rlineto
            50 hlineto
            37 191 rlineto
            return
          </CharString>
          <CharString index="9">
            84 23 -93 callgsubr
            return
          </CharString>
          <CharString index="10">
            rmoveto
            39 206 -10 callgsubr
            20 callsubr
            -58 -313 -6 -34 rlineto
            -48 -31 -62 -34 -46 hhcurveto
            -60 -23 24 73 17 5 45 8 40 hvcurveto
            44 230 -98 callsubr
            -44 -229 rlineto
            -7 -37 -6 -37 -32 vvcurveto
            -113 42 -56 130 67 55 19 28 45 vhcurveto
            -1 -5 rlineto
            -104 -18 -45 -66 -120 hhcurveto
            -38 -46 12 21 -30 hvcurveto
            -6 80 rlineto
            -52 hlineto
            -39 -144 rlineto
            -34 54 73 -16 74 hhcurveto
            143 121 44 212 39 hvcurveto
            46 251 rlineto
            endchar
          </CharString>
          <CharString index="11">
            rmoveto
            25 30 -4 -8 13 hvcurveto
            9 -81 rlineto
            51 hlineto
            34 134 rlineto
            20 -43 -51 10 -48 hhcurveto
            -134 -77 -64 -107 -59 25 -44 55 -23 hvcurveto
            79 -35 rlineto
            41 -18 4 -16 -20 vvcurveto
            -47 -34 -23 -57 -39 -24 5 8 -15 vhcurveto
            -6 90 rlineto
            -50 hlineto
            -37 -143 rlineto
            -22 43 63 -7 48 hhcurveto
            137 84 67 125 52 -34 40 -48 21 hvcurveto
            -83 37 rlineto
            -30 13 -9 12 25 vvcurveto
            36 23 26 55 vhcurveto
            return
          </CharString>
          <CharString index="12">
            -85 callsubr
            -42 callgsubr
            return
          </CharString>
          <CharString index="13">
            rmoveto
            119 18 rlineto
            116 73 142 166 233 vvcurveto
            14 -2 14 -3 13 vhcurveto
            -45 -6 -60 -10 -64 -21 10 -42 rcurveline
            56 -7 rlineto
            2 -7 2 -10 -10 vvcurveto
            -117 -58 -118 -88 -80 vhcurveto
            1 32 3 60 55 vvcurveto
            103 -5 120 -14 57 vhcurveto
            -129 -20 rlineto
            10 -48 5 -60 -27 vvcurveto
            -75 -24 -85 -113 -112 vhcurveto
            3 34 1 98 0 vvcurveto
            115 -10 179 -10 -64 -75 -17 -21 -65 vhcurveto
            10 -42 71 -9 rlineto
            0 19 -92 -169 vvcurveto
            -51 -3 -83 -5 -45 vhcurveto
            121 18 61 42 63 60 29 60 rlinecurve
            -45 -1 -76 -6 -59 vhcurveto
            endchar
          </CharString>
          <CharString index="14">
            93 50 25 21 32 hvcurveto
            -12 49 rlineto
            -78 callsubr
            -13 callsubr
            return
          </CharString>
          <CharString index="15">
            -29 -86 -16 -20 -75 hvcurveto
            10 -42 66 -8 rlineto
            -28 -134 -51 -218 -29 vvcurveto
            -47 24 -11 46 38 49 8 20 48 57 callsubr
            return
          </CharString>
          <CharString index="16">
            rmoveto
            -44 callsubr
            107 87 137 168 213 vvcurveto
            16 -3 20 -5 15 vhcurveto
            -70 callsubr
            10 -42 rlineto
            return
          </CharString>
          <CharString index="17">
            -75 -40 -56 -38 -34 hhcurveto
            -17 0 11 21 hvcurveto
            46 77 318 21 vvcurveto
            14 -8 11 -18 -46 -85 -14 -20 -61 vhcurveto
            return
          </CharString>
          <CharString index="18">
            177 hlineto
            8 45 -55 23 -32 183 -2 26 -60 22 rlinecurve
            81 25 82 56 108 vvcurveto
            78 -50 48 -130 vhcurveto
            -275 hlineto
            -9 -45 -73 callsubr
            284 hlineto
            8 45 -64 24 39 199 rlineto
            19 hlineto
            44 5 -34 -234 39 hvcurveto
            -62 323 rmoveto
            -35 hlineto
            44 225 rlineto
            3 10 18 2 13 hhcurveto
            50 23 -20 -47 -98 -50 -65 -73 hvcurveto
            return
          </CharString>
          <CharString index="19">
            rmoveto
            -8 -45 75 -23 -71 -374 -192 442 rlineto
            -185 hlineto
            -8 -45 75 -23 -92 -477 -84 -24 -9 -45 rlineto
            231 hlineto
            9 45 -75 24 71 368 194 -449 103 12 106 546 17 callsubr
            return
          </CharString>
          <CharString index="20">
            rmoveto
            39 23 -70 143 rlineto
            -85 hlineto
            -124 -135 29 -31 124 78 87 -78 rlineto
            return
          </CharString>
          <CharString index="21">
            -89 callgsubr
            5 callgsubr
            return
          </CharString>
          <CharString index="22">
            -85 callgsubr
            -25 callgsubr
            return
          </CharString>
          <CharString index="23">
            rmoveto
            15 -6 8 -17 -35 -92 -16 -20 -65 vhcurveto
            10 -41 66 -7 -87 -447 rlineto
            -72 -13 -40 -25 -45 hhcurveto
            -26 -25 6 9 -22 hvcurveto
            -17 -52 rlineto
            0 58 -34 73 109 59 61 98 18 vhcurveto
            34 188 63 323 6 vvcurveto
            endchar
          </CharString>
          <CharString index="24">
            rmoveto
            -30 -26 82 -130 rlineto
            85 hlineto
            128 126 -23 30 -134 -68 -108 68 rlineto
            return
          </CharString>
          <CharString index="25">
            15 -4 24 -9 18 vhcurveto
            -84 -14 -6 -13 rlineto
            3 -13 2 -16 -12 vvcurveto
            return
          </CharString>
          <CharString index="26">
            -39 -88 37 -49 hhcurveto
            -33 -34 -46 -58 -20 hvcurveto
            47 -19 rlineto
            0 16 31 24 vhcurveto
            return
          </CharString>
          <CharString index="27">
            22 7 22 15 25 vvcurveto
            31 -33 18 -59 -28 -33 -4 -7 -33 vhcurveto
            -4 -53 rlineto
            40 hlineto
            12 27 rlineto
            return
          </CharString>
          <CharString index="28">
            0 -4 -33 -11 vvcurveto
            -37 27 -16 40 41 46 6 22 54 vhcurveto
            48 return
          </CharString>
          <CharString index="29">
            -14 -37 -37 -4 -31 hhcurveto
            -63 -22 38 67 26 1 13 3 23 hvcurveto
            return
          </CharString>
          <CharString index="30">
            rmoveto
            3 19 13 63 7 vvcurveto
            16 -10 11 -18 -44 -89 -19 -18 -55 20 callgsubr
            138 14 39 227 51 127 39 44 32 20 rlinecurve
            11 -85 rlineto
            66 hlineto
            32 180 rlineto
            -103 -52 -39 -82 -48 hvcurveto
            return
          </CharString>
          <CharString index="31">
            -93 -477 -69 callsubr
            return
          </CharString>
          <CharString index="32">
            rmoveto
            10 -89 rlineto
            54 hlineto
            33 143 rlineto
            16 -34 -40 6 -40 hhcurveto
            -199 -95 -165 -199 -116 73 -45 94 48 59 12 34 49 hvcurveto
            -12 49 rlineto
            -12 -38 -31 -6 -26 hhcurveto
            -61 -19 39 68 133 29 137 104 14 15 -1 -4 13 hvcurveto
            endchar
          </CharString>
          <CharString index="33">
            -90 callsubr
            10 -41 -15 callgsubr
            return
          </CharString>
          <CharString index="34">
            76 -23 -76 callsubr
            return
          </CharString>
          <CharString index="35">
            rmoveto
            22 136 rlineto
            -56 hlineto
            -37 -87 rlineto
            -9 -31 -24 -2 -26 hhcurveto
            -85 -31 43 106 160 44 192 152 35 26 -4 -8 26 hvcurveto
            4 -102 rlineto
            54 hlineto
            40 157 rlineto
            14 -43 -56 11 -73 hhcurveto
            -242 -115 -202 -210 return
          </CharString>
          <CharString index="36">
            rmoveto
            -271 hlineto
            -9 -45 76 -23 -93 -477 48 callsubr
            -161 -544 rmoveto
            93 477 rlineto
            3 11 15 3 25 hhcurveto
            82 40 -42 -106 -159 -62 -185 -133 -25 -27 2 7 -19 hvcurveto
            return
          </CharString>
          <CharString index="37">
            -55 -6 -64 -16 -50 -15 10 -42 rcurveline
            58 -7 rlineto
            2 -5 3 -10 -13 vvcurveto
            -91 -26 -96 -108 -114 vhcurveto
            153 -36 261 -22 -46 -84 -15 -23 -70 vhcurveto
            return
          </CharString>
          <CharString index="38">
            -84 -54 callgsubr
            return
          </CharString>
          <CharString index="39">
            rmoveto
            61 -21 -147 -346 -41 366 -126 -21 -148 -342 -31 344 65 20 8 45 rlineto
            -262 hlineto
            -8 -45 62 -24 53 -557 94 15 178 397 45 -412 90 15 242 543 72 24 8 44 rlineto
            -207 hlineto
            -19 callsubr
            endchar
          </CharString>
          <CharString index="40">
            -75 -30 67 -94 hhcurveto
            299 374 -56 42 -30 -16 rlineto
            -301 hlineto
            13 -111 rlineto
            207 hlineto
            -298 -383 52 -38 rlineto
            0 25 39 33 vhcurveto
            return
          </CharString>
          <CharString index="41">
            rmoveto
            52 260 rlineto
            80 5 84 41 70 vvcurveto
            15 -4 24 -9 18 vhcurveto
            -84 -14 -6 -13 rlineto
            3 -13 2 -16 -12 vvcurveto
            -44 -23 -9 -33 vhcurveto
            -65 callsubr
            1 5 66 74 15 hvcurveto
            endchar
          </CharString>
          <CharString index="42">
            -136 -15 -58 -316 rlineto
            hintmask 10111000
            -74 callsubr
            hintmask 01111000
            -85 callgsubr
            return
          </CharString>
          <CharString index="43">
            -37 49 hhcurveto
            34 28 46 58 24 hvcurveto
            return
          </CharString>
          <CharString index="44">
            rmoveto
            98 74 47 166 32 hvcurveto
            94 483 85 23 8 45 rlineto
            -292 hlineto
            -8 -45 75 -23 -98 -505 rlineto
            -70 -14 -21 -52 -57 hhcurveto
            -62 hlineto
            -11 -37 rlineto
            -16 19 29 -16 49 hhcurveto
            endchar
          </CharString>
          <CharString index="45">
            -483 rmoveto
            60 310 -10 callgsubr
            -233 hlineto
            -9 -45 76 -23 -58 -301 rlineto
            hintmask 11110100
            -107 callsubr
            vhcurveto
            return
          </CharString>
          <CharString index="46">
            rmoveto
            -257 hlineto
            -54 -194 18 -23 rlineto
            94 53 -15 -59 -58 -48 -35 -62 -51 -22 10 5 -25 hvcurveto
            -15 -53 rlineto
            -15 42 31 -4 49 hhcurveto
            135 80 71 99 49 -29 59 -153 hvcurveto
            26 100 rlineto
            176 hlineto
            12 63 rlineto
            return
          </CharString>
          <CharString index="47">
            rmoveto
            50 111 85 30 39 12 -8 49 rcurveline
            -127 -16 -172 -124 -193 vvcurveto
            -73 33 -52 97 167 41 117 73 50 -33 47 -71 -41 -32 -10 -21 -28 vhcurveto
            -21 -90 rmoveto
            26 22 36 25 30 hhcurveto
            22 8 -17 -25 -65 -28 -51 -49 -32 -13 20 37 15 2 17 2 18 hvcurveto
            endchar
          </CharString>
          <CharString index="48">
            -62 callgsubr
            hintmask 11110000
            8 callsubr
            hintmask 11101000
            61 15 53 38 55 vvcurveto
            hintmask 11110000
            -427 -586 -41 callgsubr
          </CharString>
          <CharString index="49">
            rmoveto
            -140 -88 -138 -163 -109 61 -40 79 134 90 120 183 108 -58 39 -78 hvcurveto
            -71 -364 rmoveto
            -37 -41 18 72 157 74 31 53 51 31 -26 -66 -148 -68 -38 -63 hvcurveto
            endchar
          </CharString>
          <CharString index="50">
            -44 19 rlineto
            0 -17 -31 -25 vhcurveto
            return
          </CharString>
          <CharString index="51">
            -203 -88 -180 -168 -130 71 -47 91 return
          </CharString>
          <CharString index="52">
            -39 -79 37 -49 hhcurveto
            -33 -30 -47 -57 -24 hvcurveto
            47 -19 rlineto
            0 16 31 24 vhcurveto
            return
          </CharString>
          <CharString index="53">
            rmoveto
            110 188 -22 24 -92 -20 -36 -181 40 -11 rlineto
            endchar
          </CharString>
          <CharString index="54">
            -498 -107 callgsubr
            return
          </CharString>
          <CharString index="55">
            rmoveto
            -57 callsubr
            return
          </CharString>
          <CharString index="56">
            -52 callsubr
            hintmask 11011000
            -81 callsubr
            hintmask 11101000
            -49 callgsubr
            return
          </CharString>
          <CharString index="57">
            0 -4 -31 -13 vvcurveto
            -36 25 -17 41 38 49 6 22 55 vhcurveto
            48 -74 vlineto
            1 1 71 80 16 hvcurveto
            0 88 467 30 vvcurveto
            14 -8 10 -18 -46 -82 -15 -21 -60 vhcurveto
            10 -42 rlineto
            return
          </CharString>
          <CharString index="58">
            5 -78 rlineto
            53 hlineto
            28 146 rlineto
            return
          </CharString>
          <CharString index="59">
            -48 callgsubr
            hintmask 11110000
            -65 callgsubr
            hintmask 11101000
            51 25 43 49 52 vvcurveto
            53 -50 26 -67 vhcurveto
            endchar
          </CharString>
          <CharString index="60">
            rmoveto
            44 callgsubr
            -41 -59 -18 -20 -25 vhcurveto
            hintmask 01101110
            10 43 -53 13 -20 callsubr
            55 43 51 43 vhcurveto
            4 4 3 5 4 4 rrcurveto
            hintmask 10101110
            -79 20 59 -29 73 hhcurveto
            93 50 25 21 32 hvcurveto
            -12 49 rlineto
            -78 callsubr
            hintmask 10110110
            -13 callsubr
            hvcurveto
            hintmask 01101110
            -428 -264 rmoveto
            -31 -20 -50 -48 65 callsubr
            -2 -6 -54 -282 3 vvcurveto
            hintmask 10110110
            272 292 6 callgsubr
          </CharString>
          <CharString index="61">
            27 callsubr
            -98 callsubr
            -40 -208 rlineto
            -212 hlineto
            40 208 -88 callgsubr
            40 203 rlineto
            212 hlineto
            -40 -203 -69 callsubr
            return
          </CharString>
          <CharString index="62">
            -129 -37 callsubr
            hintmask 01101110
            59 308 -68 10 -20 callsubr
            47 39 57 37 vhcurveto
            hintmask 10101110
            -84 callgsubr
            hintmask 10111100
            -25 callsubr
            hintmask 01101100
            -98 callgsubr
            endchar
          </CharString>
          <CharString index="63">
            71 -9 26 -60 27 -245 -3 -96 rlinecurve
            -1 -33 -44 -188 134 16 32 177 rlineto
            return
          </CharString>
          <CharString index="64">
            -236 -102 callsubr
          </CharString>
          <CharString index="65">
            101 hlineto
            15 79 rlineto
            57 hlineto
            12 61 rlineto
            -57 hlineto
            57 292 -80 10 -294 -322 6 -41 rlineto
            198 hlineto
            -15 -79 rlineto
            -85 140 rmoveto
            148 167 -36 -167 rlineto
            -112 hlineto
            endchar
          </CharString>
          <CharString index="66">
            rlineto
            67 hlineto
            -73 -443 rlineto
            -71 -13 -22 -23 -68 hhcurveto
            -26 -25 5 7 -20 hvcurveto
            -13 -53 rlineto
            -14 26 36 -14 60 hhcurveto
            122 57 55 101 15 hvcurveto
            return
          </CharString>
          <CharString index="67">
            rmoveto
            107 70 -94 hlineto
            20 107 rlineto
            -64 hlineto
            -70 -96 -108 -31 12 -50 rlineto
            71 hlineto
            -26 -125 -47 -239 -25 vvcurveto
            -26 19 -16 38 32 70 9 19 65 vhcurveto
            47 -91 vlineto
            66 356 rlineto
            return
          </CharString>
          <CharString index="68">
            93 477 -89 callgsubr
            return
          </CharString>
          <CharString index="69">
            rmoveto
            43 35 24 25 32 hvcurveto
            -17 61 rlineto
            -4 -17 -14 -1 -14 hhcurveto
            return
          </CharString>
          <CharString index="70">
            -32 callsubr
            -314 rmoveto
            return
          </CharString>
          <CharString index="71">
            rmoveto
            20 callsubr
            rlineto
            hintmask 10110000
            60 callsubr
            hvcurveto
            hintmask 01110000
            40 callsubr
            vhcurveto
            706 -452 -70 callgsubr
            hintmask 10110000
            -867 -92 rmoveto
            93 477 rlineto
            3 11 15 3 25 hhcurveto
            82 40 -42 -106 -159 -62 -185 -133 -25 -27 2 7 -19 hvcurveto
            endchar
          </CharString>
          <CharString index="72">
            212 309 rmoveto
            33 19 -16 -29 -36 -23 -25 -39 -21 hvcurveto
            -24 14 -23 32 24 vvcurveto
            29 22 28 35 vhcurveto
            return
          </CharString>
          <CharString index="73">
            rmoveto
            115 hlineto
            -70 -360 rlineto
            107 hlineto
            84 434 -229 -33 -7 -41 rlineto
            return
          </CharString>
          <CharString index="74">
            rmoveto
            -31 -20 -50 -51 65 callsubr
            -95 -19 -36 -187 -1 hhcurveto
            endchar
          </CharString>
          <CharString index="75">
            -103 callsubr
            127 return
          </CharString>
          <CharString index="76">
            29 0 -14 callgsubr
            return
          </CharString>
          <CharString index="77">
            rmoveto
            -11 -79 rlineto
            261 hlineto
            11 79 99 callgsubr
            return
          </CharString>
          <CharString index="78">
            29 135 176 135 return
          </CharString>
          <CharString index="79">
            rmoveto
            -43 30 -41 102 vhcurveto
            hintmask 11101000
            115 65 86 callsubr
            28 38 57 vvcurveto
            45 -37 36 -85 -123 -41 63 callgsubr
            209 309 rmoveto
            33 19 -16 -29 -36 -26 -25 -39 -21 hvcurveto
            -24 14 -23 32 24 vvcurveto
            29 25 28 35 vhcurveto
            hintmask 11101000
            4 -286 rmoveto
            -36 -26 -19 -40 -28 -28 11 31 42 35 30 27 24 vhcurveto
            26 -18 34 -22 -43 vvcurveto
            endchar
          </CharString>
          <CharString index="80">
            697 rmoveto
            -11 -79 rlineto
            241 hlineto
            11 79 rlineto
            -241 hlineto
            return
          </CharString>
          <CharString index="81">
            77 167 55 155 71 return
          </CharString>
          <CharString index="82">
            1 1 70 79 15 hvcurveto
            return
          </CharString>
          <CharString index="83">
            rmoveto
            -28 -86 rlineto
            64 hlineto
            27 83 rlineto
            167 9 110 135 226 vvcurveto
            72 -32 60 -76 17 vhcurveto
            26 79 rlineto
            -64 hlineto
            -25 -75 rlineto
            -166 -9 -109 -134 -229 vvcurveto
            -76 33 -57 73 -15 vhcurveto
            29 148 rmoveto
            108 18 182 100 14 vhcurveto
            -115 -352 rlineto
            -3 13 0 16 19 vvcurveto
            176 219 rmoveto
            -131 -25 -163 -96 -11 vhcurveto
            116 356 rlineto
            4 -14 1 -17 -20 vvcurveto
            endchar
          </CharString>
          <CharString index="84">
            -4 callsubr
            -12 callsubr
            return
          </CharString>
          <CharString index="85">
            vstem
            466 639 -96 callgsubr
            -67 -236 -106 callsubr
            return
          </CharString>
          <CharString index="86">
            rmoveto
            -15 callgsubr
            return
          </CharString>
          <CharString index="87">
            -33 -33 rlineto
            0 -46 15 -48 -151 -127 -147 -225 22 callgsubr
            return
          </CharString>
          <CharString index="88">
            -8 -45 rlineto
            return
          </CharString>
          <CharString index="89">
            -10 -95 callgsubr
            return
          </CharString>
          <CharString index="90">
            33 callgsubr
            hintmask 11001000
            39 callsubr
            hintmask 11010000
            17 callgsubr
            hintmask 11001000
            -78 hlineto
            35 callsubr
            vhcurveto
            hintmask 11100000
            -67 -83 -48 -49 -55 hvcurveto
            endchar
          </CharString>
          <CharString index="91">
            662 rmoveto
            1 6 0 6 6 vvcurveto
            50 -31 40 -69 -83 -47 -60 -67 -49 33 -36 67 77 43 45 59 9 vhcurveto
            -106 55 rmoveto
            27 6 -15 -20 -39 -9 -33 -40 -26 -7 12 19 38 8 38 41 hvcurveto
            return
          </CharString>
          <CharString index="92">
            hstemhm
            57 132 127 205 return
          </CharString>
          <CharString index="93">
            3 -14 70 255 75 hstem
            34 131 183 131 vstem
            191 333 rmoveto
            44 135 105 85 105 29 -8 52 rcurveline
            -197 -26 -206 -188 -255 vvcurveto
            -92 32 -87 140 231 42 168 91 81 -42 60 -105 -71 -41 -28 -25 -29 vhcurveto
            -17 -88 rmoveto
            31 30 40 35 46 hhcurveto
            48 10 -32 -45 -94 -32 -84 -86 -54 -11 41 80 14 2 28 7 26 hvcurveto
            endchar
          </CharString>
          <CharString index="94">
            181 98 69 113 return
          </CharString>
          <CharString index="95">
            hstem
            -19 callgsubr
            vstem
            return
          </CharString>
          <CharString index="96">
            53 0 45 108 59 return
          </CharString>
          <CharString index="97">
            -57 callsubr
            hintmask 11011100
            -81 callsubr
            return
          </CharString>
          <CharString index="98">
            rmoveto
            -82 callsubr
            return
          </CharString>
          <CharString index="99">
            43 callsubr
            128 208 return
          </CharString>
          <CharString index="100">
            vhcurveto
            10 -41 71 -9 -86 return
          </CharString>
          <CharString index="101">
            564 rmoveto
            -76 callgsubr
            return
          </CharString>
          <CharString index="102">
            hlineto
            9 45 -63 24 return
          </CharString>
          <CharString index="103">
            -10 68 502 68 return
          </CharString>
          <CharString index="104">
            rmoveto
            40 17 -52 184 rlineto
            -79 hlineto
            -17 -17 108 -184 rlineto
            return
          </CharString>
          <CharString index="105">
            -17 0 15 callgsubr
            return
          </CharString>
          <CharString index="106">
            hmoveto
            8 45 -75 28 -128 266 221 210 69 22 8 43 rlineto
            -213 hlineto
            -9 -45 49 -15 -217 -207 39 199 74 21 9 47 rlineto
            -286 hlineto
            -9 -45 -73 callsubr
            279 hlineto
            9 46 -60 23 39 202 118 -271 rlineto
            184 hlineto
            return
          </CharString>
          <CharString index="107">
            22 7 22 15 25 vvcurveto
            31 -33 18 -59 vhcurveto
            -172 -177 rmoveto
            87 -78 39 23 -70 143 rlineto
            -85 hlineto
            -124 -135 29 -31 124 78 rlineto
            return
          </CharString>
          <CharString index="108">
            80 5 84 41 70 vvcurveto
            -82 callsubr
            -44 -23 -9 -33 vhcurveto
            -136 -15 -58 -316 rlineto
            return
          </CharString>
          <CharString index="109">
            65 -10 83 -55 47 return
          </CharString>
          <CharString index="110">
            rlineto
            5 -19 -20 2 -21 hhcurveto
            -168 -117 -140 -231 return
          </CharString>
          <CharString index="111">
            rmoveto
            213 hlineto
            -224 -343 96 -34 235 410 -17 45 rlineto
            -293 hlineto
            -10 -78 rlineto
            return
          </CharString>
          <CharString index="112">
            5 454 rmoveto
            -133 110 -111 133 135 108 111 133 135 -108 109 -135 -133 -110 -109 -135 vhcurveto
            37 hmoveto
            114 95 97 112 115 92 -97 -114 -114 -92 -97 -115 -112 -95 97 114 vhcurveto
            return
          </CharString>
          <CharString index="113">
            -54 -87 callsubr
            return
          </CharString>
          <CharString index="114">
            739 rmoveto
            15 -212 rlineto
            41 hlineto
            46 192 -70 20 rlineto
            -32 hlineto
            return
          </CharString>
          <CharString index="115">
            229 124 211 217 45 -8 40 -18 33 hvcurveto
            return
          </CharString>
          <CharString index="116">
            -150 68 callsubr
            return
          </CharString>
          <CharString index="117">
            rmoveto
            -92 558 -77 -13 -288 -545 -69 -25 -9 -44 rlineto
            206 hlineto
            9 45 -60 23 45 85 rlineto
            183 hlineto
            29 callsubr
            rlineto
            -304 143 rmoveto
            111 211 32 -211 rlineto
            -143 hlineto
            endchar
          </CharString>
          <CharString index="118">
            46 0 62 hstemhm
            37 509 -146 146 hintmask 11000000
            37 hmoveto
            hintmask 10100000
            509 38 hlineto
            -212 573 rlineto
            -84 hlineto
            hintmask 11000000
            -213 -611 rlineto
            99 62 rmoveto
            132 400 rlineto
            hintmask 10100000
            132 -380 rlineto
            -20 vlineto
            hintmask 11000000
            -264 hlineto
            endchar
          </CharString>
          <CharString index="119">
            vstem
            244 396 -77 callsubr
            return
          </CharString>
          <CharString index="120">
            rmoveto
            23 vlineto
            -99 34 -156 -131 27 -35 228 109 rlineto
            return
          </CharString>
          <CharString index="121">
            -2 -183 70 133 77 350 68 return
          </CharString>
          <CharString index="122">
            -26 callgsubr
            endchar
          </CharString>
          <CharString index="123">
            164 -167 81 128 75 452 45 return
          </CharString>
          <CharString index="124">
            85 23 8 45 rlineto
            -233 hlineto
            return
          </CharString>
          <CharString index="125">
            -37 -10 69 500 69 hstem
            76 124 95 130 vstem
            return
          </CharString>
          <CharString index="126">
            85 -10 69 185 45 271 68 return
          </CharString>
          <CharString index="127">
            -271 hlineto
            -9 -45 76 -23 return
          </CharString>
          <CharString index="128">
            rmoveto
            -154 131 -97 -34 -4 -23 232 -109 23 35 rlineto
            return
          </CharString>
          <CharString index="129">
            -29 -66 rlineto
            -103 hlineto
            return
          </CharString>
          <CharString index="130">
            -53 callgsubr
            endchar
          </CharString>
          <CharString index="131">
            64 hstemhm
            239 112 -91 114 hintmask 00000000
            hintmask 11101000
            257 return
          </CharString>
          <CharString index="132">
            27 hhcurveto
            18 1 -14 -11 hvcurveto
            return
          </CharString>
          <CharString index="133">
            115 68 58 72 35 -29 45 -45 29 return
          </CharString>
          <CharString index="134">
            295 34 callsubr
            return
          </CharString>
          <CharString index="135">
            -1 callgsubr
            30 83 callgsubr
            -14 151 151 147 return
          </CharString>
          <CharString index="136">
            14 -88 -66 -20 -9 -45 rlineto
            267 -5 callsubr
            return
          </CharString>
          <CharString index="137">
            64 callsubr
            -298 -322 6 -41 rlineto
            202 hlineto
            -15 -79 rlineto
            -89 140 rmoveto
            return
          </CharString>
          <CharString index="138">
            62 -20 -136 -211 rlineto
            return
          </CharString>
          <CharString index="139">
            49 -28 rlineto
            38 25 21 15 26 68 54 -58 67 hhcurveto
            hintmask 10101000
            53 46 37 74 41 hvcurveto
            -52 27 rlineto
            -42 -27 -19 -15 -37 -58 -64 57 -68 hhcurveto
            return
          </CharString>
          <CharString index="140">
            86 278 86 hstem
            25 79 209 76 vstem
            253 return
          </CharString>
          <CharString index="141">
            hlineto
            8 45 -75 24 93 477 return
          </CharString>
          <CharString index="142">
            28 128 46 224 34 vvcurveto
            48 -20 15 -39 return
          </CharString>
          <CharString index="143">
            131 -20 21 109 -138 -18 45 138 rlineto
            -121 hlineto
            -8 -138 -129 18 -21 -109 138 20 return
          </CharString>
          <CharString index="144">
            39 35 60 36 25 callsubr
            return
          </CharString>
          <CharString index="145">
            -11 callsubr
            76 callsubr
            return
          </CharString>
          <CharString index="146">
            35 31 63 40 26 hhcurveto
            13 8 -4 -19 hvcurveto
            return
          </CharString>
          <CharString index="147">
            128 -78 83 -175 return
          </CharString>
          <CharString index="148">
            417 -66 105 -49 76 -76 82 -59 57 callgsubr
            -60 69 49 callgsubr
            hintmask 00001010
            return
          </CharString>
          <CharString index="149">
            60 35 -49 143 105 145 -46 34 -176 -179 return
          </CharString>
          <CharString index="150">
            hstemhm
            32 135 return
          </CharString>
          <CharString index="151">
            39 -1 callgsubr
            30 2 callgsubr
            67 43 callsubr
            -40 151 17 208 hintmask 01011000
            return
          </CharString>
          <CharString index="152">
            1 5 0 5 4 vvcurveto
            44 -1 -26 36 -66 hhcurveto
            -9 -8 0 -1 -7 hvcurveto
            220 105 rlineto
            23 vlineto
            return
          </CharString>
          <CharString index="153">
            75 callsubr
            -14 471 vstem
            return
          </CharString>
          <CharString index="154">
            -61 -27 -51 -51 -59 vvcurveto
            return
          </CharString>
          <CharString index="155">
            -69 callsubr
            282 hlineto
            239 121 193 210 40 callsubr
            hvcurveto
            return
          </CharString>
          <CharString index="156">
            rmoveto
            -414 -79 414 79 hlineto
            return
          </CharString>
          <CharString index="157">
            94 -38 99 58 105 -54 85 return
          </CharString>
          <CharString index="158">
            -29 -49 -191 -26 vvcurveto
            -40 20 -8 34 31 49 8 12 28 vhcurveto
            39 vlineto
            hintmask 11010000
            -57 hlineto
            return
          </CharString>
          <CharString index="159">
            -17 callgsubr
            126 35 97 callsubr
            124 50 2 135 -115 76 return
          </CharString>
          <CharString index="160">
            51 callgsubr
            158 26 callgsubr
            -447 hlineto
            -9 -45 return
          </CharString>
          <CharString index="161">
            61 callgsubr
            endchar
          </CharString>
          <CharString index="162">
            -74 -10 -26 callsubr
            return
          </CharString>
          <CharString index="163">
            69 44 -79 94 hhcurveto
            return
          </CharString>
          <CharString index="164">
            vhcurveto
            48 -75 vlineto
            return
          </CharString>
          <CharString index="165">
            657 rmoveto
            41 -34 32 -40 -41 -37 -32 -41 -42 37 -30 41 40 34 30 42 vhcurveto
            return
          </CharString>
          <CharString index="166">
            92 -55 92 hstemhm
            return
          </CharString>
          <CharString index="167">
            -76 callsubr
            282 hlineto
            239 121 193 210 return
          </CharString>
          <CharString index="168">
            65 -1 callgsubr
            30 95 callsubr
            -49 151 25 205 return
          </CharString>
          <CharString index="169">
            29 135 72 callgsubr
            return
          </CharString>
          <CharString index="170">
            vstem
            95 701 rmoveto
            -10 -233 rlineto
            41 hlineto
            80 233 rlineto
            -111 hlineto
            return
          </CharString>
          <CharString index="171">
            rmoveto
            101 hlineto
            15 79 rlineto
            57 hlineto
            12 61 rlineto
            -57 hlineto
            57 292 -80 10 return
          </CharString>
          <CharString index="172">
            -33 hhcurveto
            -21 -13 17 55 167 52 136 90 18 14 -3 -8 19 hvcurveto
            return
          </CharString>
          <CharString index="173">
            66 391 68 97 callsubr
            return
          </CharString>
          <CharString index="174">
            29 callsubr
            -92 558 return
          </CharString>
          <CharString index="175">
            0 72 callsubr
            return
          </CharString>
          <CharString index="176">
            52 341 53 hstemhm
            29 91 -35 93 64 99 -51 81 hintmask 11100100
            29 return
          </CharString>
          <CharString index="177">
            rmoveto
            138 226 -24 28 -108 -23 -55 -222 49 -9 rlineto
            return
          </CharString>
          <CharString index="178">
            773 rmoveto
            -106 -188 20 -24 93 20 36 185 -43 7 rlineto
            return
          </CharString>
          <CharString index="179">
            45 524 45 return
          </CharString>
          <CharString index="180">
            3 0 49 hstem
            20 435 vstem
            455 49 rmoveto
            -148 27 return
          </CharString>
          <CharString index="181">
            41 hstem
            88 236 vstem
            88 return
          </CharString>
          <CharString index="182">
            0 86 callgsubr
            return
          </CharString>
          <CharString index="183">
            hstem
            -52 598 vstem
            return
          </CharString>
          <CharString index="184">
            hstemhm
            48 205 return
          </CharString>
          <CharString index="185">
            121 -58 89 -171 -51 callgsubr
            return
          </CharString>
          <CharString index="186">
            rmoveto
            214 245 -43 -245 rlineto
            -171 hlineto
            endchar
          </CharString>
          <CharString index="187">
            hstem
            36 148 return
          </CharString>
          <CharString index="188">
            95 callgsubr
            hintmask 11101100
            return
          </CharString>
          <CharString index="189">
            -157 -150 69 650 45 hstem
            -83 488 vstem
            return
          </CharString>
          <CharString index="190">
            -241 4 callgsubr
            return
          </CharString>
          <CharString index="191">
            hstem
            -13 565 vstem
            return
          </CharString>
          <CharString index="192">
            -96 337 180 return
          </CharString>
          <CharString index="193">
            58 72 35 -29 45 -45 29 hvcurveto
            hintmask 11010100
            76 31 return
          </CharString>
          <CharString index="194">
            -44 vhcurveto
            8 -30 52 -6 -63 -319 110 10 return
          </CharString>
          <CharString index="195">
            hhcurveto
            217 70 213 172 105 -54 34 -71 return
          </CharString>
          <CharString index="196">
            94 callsubr
            rlineto
            return
          </CharString>
          <CharString index="197">
            84 callgsubr
            vstem
            return
          </CharString>
          <CharString index="198">
            29 26 43 21 20 hhcurveto
            13 0 -10 -8 hvcurveto
            return
          </CharString>
          <CharString index="199">
            -252 576 166 hstem
            78 255 vstem
            return
          </CharString>
          <CharString index="200">
            21 94 33 155 28 vvcurveto
            32 -9 17 -37 return
          </CharString>
          <CharString index="201">
            20 callgsubr
            137 14 return
          </CharString>
          <CharString index="202">
            83 -55 47 hstemhm
            57 132 return
          </CharString>
          <CharString index="203">
            -236 62 164 return
          </CharString>
          <CharString index="204">
            hstemhm
            29 135 return
          </CharString>
          <CharString index="205">
            209 68 21 return
          </CharString>
          <CharString index="206">
            hstem
            9 265 vstem
            274 203 rmoveto
            return
          </CharString>
          <CharString index="207">
            23 13 -13 -53 -155 -48 -151 -81 return
          </CharString>
          <CharString index="208">
            -59 -34 50 -145 -106 -143 45 -35 return
          </CharString>
          <CharString index="209">
            -198 -10 76 return
          </CharString>
        <CharString name=".notdef">
          -347 endchar
        </CharString>
        <CharString name="A">
          38 callsubr
          331 153 -101 callsubr
        </CharString>
        <CharString name="AE">
          60 callgsubr
          418 315 -30 callgsubr
        </CharString>
        <CharString name="AEacute">
          60 callgsubr
          377 634 -97 callgsubr
          41 -319 -30 callgsubr
        </CharString>
        <CharString name="Aacute">
          38 callsubr
          269 634 -97 callgsubr
          62 -481 -101 callsubr
        </CharString>
        <CharString name="Abreve">
          -11 callsubr
          439 76 hstem
          241 63 vstem
          344 651 -103 callsubr
          -13 -53 callsubr
          endchar
        </CharString>
        <CharString name="Acircumflex">
          38 callsubr
          467 639 -96 callgsubr
          -136 -486 -101 callsubr
        </CharString>
        <CharString name="Adieresis">
          -11 callsubr
          435 145 hstem
          168 32 callgsubr
          vstem
          320 719 -103 callgsubr
          -220 -566 -101 callsubr
        </CharString>
        <CharString name="Agrave">
          38 callsubr
          434 634 -77 callgsubr
          -103 -481 -101 callsubr
        </CharString>
        <CharString name="Amacron">
          -11 callsubr
          467 79 76 callsubr
          230 758 -30 callsubr
          101 -605 -101 callsubr
        </CharString>
        <CharString name="Aogonek">
          53 -236 62 174 45 108 59 hstem
          200 88 vstem
          103 68 rmoveto
          45 85 rlineto
          184 hlineto
          13 -88 rlineto
          -7 vlineto
          -54 -145 -53 -111 -47 callgsubr
          -27 -11 15 31 47 52 81 60 hvcurveto
          137 -5 callsubr
          -92 558 -77 -13 -288 -545 -69 -25 -9 -44 rlineto
          206 hlineto
          9 45 -60 23 rlineto
          187 355 rmoveto
          32 -211 rlineto
          -143 hlineto
          111 211 rlineto
          endchar
        </CharString>
        <CharString name="Aring">
          -11 callsubr
          415 47 97 48 hstem
          250 73 82 73 vstem
          477 -44 callgsubr
          -39 -618 -101 callsubr
        </CharString>
        <CharString name="Aringacute">
          -11 callsubr
          415 47 97 48 hstem
          260 73 82 73 vstem
          492 980 rmoveto
          -156 -131 25 -33 rlineto
          -71 -12 -30 -50 -56 vvcurveto
          -45 36 -26 61 78 42 41 57 10 vhcurveto
          45 callsubr
          -99 34 rlineto
          -77 -240 rmoveto
          -29 -9 -37 -41 -29 -3 14 18 29 8 36 39 24 11 -14 -17 vhcurveto
          -24 -113 10 callgsubr
        </CharString>
        <CharString name="Atilde">
          -11 callsubr
          442 59 callsubr
          -52 598 hintmask 11101000
          537 758 -51 callsubr
          -206 -605 -101 callsubr
        </CharString>
        <CharString name="B">
          57 0 61 228 54 210 61 hstemhm
          374 139 -96 138 hintmask 11110000
          389 324 rmoveto
          hintmask 11101000
          90 16 76 62 96 vvcurveto
          70 -54 46 -130 vhcurveto
          -266 hlineto
          -9 -45 -73 callsubr
          253 hlineto
          hintmask 11110000
          171 102 84 119 63 -39 44 -85 14 hvcurveto
          hintmask 11101000
          -94 19 rmoveto
          -27 hlineto
          41 206 rlineto
          0 19 4 22 43 24 -19 -44 -120 -79 -27 -43 vhcurveto
          -80 -274 rmoveto
          43 220 rlineto
          hintmask 11110000
          25 hlineto
          51 40 -27 -59 -97 -52 -45 -62 hvcurveto
          hintmask 11101000
          -16 -18 4 4 -11 hvcurveto
          endchar
        </CharString>
        <CharString name="C">
          38 callgsubr
          452 21 -72 callsubr
          -148 64 -78 168 74 52 11 20 58 hvcurveto
          endchar
        </CharString>
        <CharString name="Cacute">
          38 callgsubr
          301 634 -97 callgsubr
          151 -613 -72 callsubr
          -148 64 -78 168 74 52 11 20 58 hvcurveto
          endchar
        </CharString>
        <CharString name="Cacute.loclPLK">
          38 callgsubr
          366 -6 callgsubr
          86 -610 -72 callsubr
          -148 64 -78 168 74 52 11 20 58 hvcurveto
          endchar
        </CharString>
        <CharString name="Ccaron">
          38 callgsubr
          290 795 -83 callsubr
          162 -774 -72 callsubr
          -148 64 -78 168 74 52 11 20 58 hvcurveto
          endchar
        </CharString>
        <CharString name="Ccedilla">
          16 -220 44 166 69 501 84 callgsubr
          61 99 vstem
          452 21 -72 callsubr
          -136 53 -76 138 -12 hvcurveto
          -35 -65 -68 callgsubr
          17 36 71 1 51 10 57 20 rlinecurve
          endchar
        </CharString>
        <CharString name="Ccircumflex">
          38 callgsubr
          510 639 -96 callgsubr
          -58 -618 -72 callsubr
          -148 64 -78 168 74 52 11 20 58 hvcurveto
          endchar
        </CharString>
        <CharString name="Cdotaccent">
          16 -10 69 501 68 7 164 hstemhm
          36 148 136 168 hintmask 00000000
          hintmask 10111000
          488 -38 callgsubr
          -36 -694 rmoveto
          22 136 rlineto
          -56 hlineto
          -37 -87 rlineto
          -9 -31 -24 -2 -26 hhcurveto
          -85 -31 43 106 hvcurveto
          hintmask 11010000
          160 44 192 152 35 26 -4 -8 26 vhcurveto
          4 -102 rlineto
          54 hlineto
          40 157 rlineto
          14 -43 -56 11 -73 hhcurveto
          -242 -115 -202 -210 -148 64 -78 168 hvcurveto
          hintmask 10111000
          74 52 11 20 58 hvcurveto
          endchar
        </CharString>
        <CharString name="D">
          134 0 61 492 61 hstem
          481 148 vstem
          376 614 -71 callsubr
          endchar
        </CharString>
        <CharString name="Dcaron">
          134 0 61 492 61 hstem
          481 148 vstem
          280 795 -83 callsubr
          96 -181 -71 callsubr
          endchar
        </CharString>
        <CharString name="Dcroat">
          -29 callgsubr
        </CharString>
        <CharString name="E">
          43 callgsubr
          399 403 -102 callsubr
        </CharString>
        <CharString name="Eacute">
          43 callgsubr
          278 634 -97 callgsubr
          121 -231 -102 callsubr
        </CharString>
        <CharString name="Ebreve">
          -31 callsubr
          37 76 hstem
          235 63 vstem
          338 651 -103 callsubr
          61 -248 -102 callsubr
        </CharString>
        <CharString name="Ecaron">
          43 callgsubr
          256 795 -83 callsubr
          143 -392 -102 callsubr
        </CharString>
        <CharString name="Ecircumflex">
          29 0 69 212 56 209 68 hstem
          -13 565 -22 callsubr
          endchar
        </CharString>
        <CharString name="Edieresis">
          -31 callsubr
          33 145 hstem
          164 32 callgsubr
          vstem
          316 719 -103 callgsubr
          -148 -316 -102 callsubr
        </CharString>
        <CharString name="Edotaccent">
          -31 callsubr
          21 164 hstemhm
          275 168 hintmask 00000000
          hintmask 11111000
          443 -38 callgsubr
          -44 -312 rmoveto
          22 callsubr
          hintmask 11101000
          53 callsubr
          -99 callsubr
          hintmask 11111000
          -50 hlineto
          endchar
        </CharString>
        <CharString name="Egrave">
          43 callgsubr
          411 634 -77 callgsubr
          -12 -231 -102 callsubr
        </CharString>
        <CharString name="Emacron">
          -31 callsubr
          65 79 84 callsubr
          235 758 -30 callsubr
          164 -355 -102 callsubr
        </CharString>
        <CharString name="Eng">
          162 -184 71 113 41 callgsubr
          732 vstem
          486 614 rmoveto
          -8 -45 75 -23 -71 -374 -192 442 rlineto
          -185 hlineto
          -8 -45 75 -23 -92 -477 -84 -24 -9 -45 rlineto
          231 hlineto
          9 45 -75 24 71 368 172 -399 rlineto
          -99 -11 -30 -52 -65 hhcurveto
          -21 -33 4 11 -21 hvcurveto
          -17 -52 rlineto
          -16 30 50 -18 46 hhcurveto
          100 76 55 192 33 hvcurveto
          94 483 17 callsubr
          endchar
        </CharString>
        <CharString name="Eogonek">
          29 -236 62 174 -14 callgsubr
          hstem
          291 88 vstem
          -13 hmoveto
          416 hlineto
          -79 -58 -33 -62 -40 -47 callgsubr
          -27 -11 15 26 33 35 69 34 31 hvcurveto
          4 13 callgsubr
          -73 callsubr
          endchar
        </CharString>
        <CharString name="Eth">
          -29 callgsubr
        </CharString>
        <CharString name="Euro">
          3 -5 65 152 58 61 58 166 67 hstem
          76 124 vstem
          208 270 rmoveto
          11 61 rlineto
          160 hlineto
          19 58 rlineto
          -164 hlineto
          135 39 58 31 52 hhcurveto
          24 16 -3 -6 17 hvcurveto
          4 -89 rlineto
          44 hlineto
          39 137 rlineto
          15 -40 -56 13 -51 hhcurveto
          -107 -108 -52 -181 -56 hvcurveto
          -77 hlineto
          -19 -58 rlineto
          80 hlineto
          -7 -32 -2 -18 -2 -11 rrcurveto
          -73 hlineto
          -19 -58 rlineto
          87 hlineto
          -1 -11 0 -10 -10 vvcurveto
          -164 98 -22 102 54 39 8 15 43 vhcurveto
          1 54 rlineto
          -6 -34 -35 -6 -29 hhcurveto
          -87 -28 50 75 8 0 9 1 10 hvcurveto
          155 hlineto
          19 58 rlineto
          -167 hlineto
          endchar
        </CharString>
        <CharString name="F">
          0 0 45 219 56 226 68 hstem
          -13 570 vstem
          557 614 rmoveto
          -452 hlineto
          -9 -45 -73 callsubr
          305 hlineto
          9 47 -86 22 38 195 rlineto
          105 hlineto
          5 -69 rlineto
          50 hlineto
          37 191 rlineto
          -50 hlineto
          -29 -66 rlineto
          -107 hlineto
          44 226 rlineto
          163 26 callgsubr
          endchar
        </CharString>
        <CharString name="G">
          19 callsubr
          hstem
          36 148 vstem
          479 545 -94 callgsubr
          endchar
        </CharString>
        <CharString name="G_tilde.loclGUA">
          19 callsubr
          27 59 callsubr
          36 148 hintmask 00000000
          hintmask 11110100
          569 759 -50 callgsubr
          hintmask 11101100
          -90 -214 -94 callgsubr
          endchar
        </CharString>
        <CharString name="Gbreve">
          19 callsubr
          23 76 hstemhm
          36 148 94 63 hintmask 00000000
          hintmask 11111100
          381 651 -103 callsubr
          hintmask 11101100
          98 -106 -94 callgsubr
          endchar
        </CharString>
        <CharString name="Gcaron">
          19 callsubr
          hstem
          36 148 vstem
          271 795 -83 callsubr
          208 -250 -94 callgsubr
          endchar
        </CharString>
        <CharString name="Gcircumflex">
          19 callsubr
          hstem
          36 148 vstem
          494 639 -96 callgsubr
          -15 -94 -94 callgsubr
          endchar
        </CharString>
        <CharString name="Gcommaaccent">
          19 callsubr
          hstem
          36 148 vstem
          479 545 -94 callgsubr
          -253 -781 -54 callsubr
        </CharString>
        <CharString name="Gdotaccent">
          19 callsubr
          7 164 hstemhm
          36 148 120 168 hintmask 00000000
          hintmask 11011100
          472 -38 callgsubr
          hintmask 11101000
          7 -170 -94 callgsubr
          endchar
        </CharString>
        <CharString name="H">
          198 0 45 227 66 231 45 hstem
          -15 762 vstem
          333 hmoveto
          -46 callsubr
          endchar
        </CharString>
        <CharString name="Hbar">
          198 0 45 196 66 83 55 124 45 hstem
          -15 762 vstem
          738 569 rmoveto
          -93 callgsubr
          -20 -101 rlineto
          -212 hlineto
          20 101 -98 callsubr
          -20 -101 rlineto
          -76 hlineto
          -11 -55 rlineto
          77 hlineto
          -63 -321 -69 callsubr
          5 callgsubr
          -75 24 34 172 rlineto
          212 hlineto
          -34 -172 -69 callsubr
          5 callgsubr
          -75 24 63 321 rlineto
          75 hlineto
          11 55 rlineto
          -76 hlineto
          20 101 84 23 rlineto
          -267 -262 rmoveto
          -212 hlineto
          17 83 rlineto
          212 hlineto
          -17 -83 rlineto
          endchar
        </CharString>
        <CharString name="Hcircumflex">
          198 0 45 227 66 231 45 hstem
          -15 762 vstem
          551 639 -96 callgsubr
          -218 -639 rmoveto
          -46 callsubr
          endchar
        </CharString>
        <CharString name="I">
          -150 75 callgsubr
          414 vstem
          215 69 rmoveto
          93 477 -88 callgsubr
          rlineto
          endchar
        </CharString>
        <CharString name="IJ">
          200 -150 69 81 41 callgsubr
          775 vstem
          215 69 rmoveto
          93 477 -88 callgsubr
          rlineto
          156 -219 -63 callsubr
        </CharString>
        <CharString name="Iacute">
          -150 75 callgsubr
          424 vstem
          183 634 -97 callgsubr
          32 -565 rmoveto
          93 477 -88 callgsubr
          rlineto
          endchar
        </CharString>
        <CharString name="Iacute_J.loclNLD">
          200 -150 69 81 41 callgsubr
          819 vstem
          225 634 -97 callgsubr
          353 hmoveto
          228 109 rlineto
          23 vlineto
          -99 34 -156 -131 27 -35 rlineto
          -363 -565 rmoveto
          93 477 -88 callgsubr
          rlineto
          156 -219 -63 callsubr
        </CharString>
        <CharString name="Ibreve">
          9 callsubr
          37 76 hstem
          146 63 vstem
          249 651 -103 callsubr
          -34 -582 rmoveto
          93 477 -88 callgsubr
          rlineto
          endchar
        </CharString>
        <CharString name="Icircumflex">
          -150 75 callgsubr
          423 vstem
          380 639 -96 callgsubr
          -165 -570 rmoveto
          93 477 -88 callgsubr
          rlineto
          endchar
        </CharString>
        <CharString name="Idieresis">
          9 callsubr
          33 145 hstem
          80 32 callgsubr
          vstem
          232 719 -103 callgsubr
          -248 -650 rmoveto
          93 477 -88 callgsubr
          rlineto
          endchar
        </CharString>
        <CharString name="Idotaccent">
          9 callsubr
          21 164 hstemhm
          187 168 hintmask 00000000
          hintmask 11110000
          355 -38 callgsubr
          -140 -646 rmoveto
          hintmask 11010000
          93 477 -86 callsubr
          rlineto
          hintmask 11110000
          -75 24 rlineto
          endchar
        </CharString>
        <CharString name="Igrave">
          -150 75 callgsubr
          414 vstem
          347 634 -77 callgsubr
          -132 -565 rmoveto
          93 477 -88 callgsubr
          rlineto
          endchar
        </CharString>
        <CharString name="Imacron">
          9 callsubr
          65 79 hstem
          -13 431 vstem
          157 758 -30 callsubr
          58 -689 rmoveto
          93 477 -88 callgsubr
          rlineto
          endchar
        </CharString>
        <CharString name="Iogonek">
          -150 -236 62 174 72 callsubr
          hstem
          55 88 vstem
          215 69 rmoveto
          -39 callsubr
          184 hlineto
          -70 -43 -46 -65 -49 vvcurveto
          -38 21 -41 71 76 42 62 0 vhcurveto
          -20 22 rlineto
          -14 -22 -20 -8 -22 hhcurveto
          -27 -11 18 26 60 72 67 63 3 hvcurveto
          5 hlineto
          8 44 rlineto
          -1 1 hlineto
          -75 24 rlineto
          endchar
        </CharString>
        <CharString name="Itilde">
          9 callsubr
          41 59 callsubr
          -13 451 hintmask 11101000
          438 759 -51 callsubr
          -223 -690 rmoveto
          93 477 -88 callgsubr
          rlineto
          endchar
        </CharString>
        <CharString name="J">
          82 callsubr
          14 -150 -63 callsubr
        </CharString>
        <CharString name="Jcircumflex">
          82 callsubr
          373 639 -96 callgsubr
          -359 -789 -63 callsubr
        </CharString>
        <CharString name="K">
          69 75 callgsubr
          672 vstem
          556 -1 callsubr
          endchar
        </CharString>
        <CharString name="Kcommaaccent">
          69 68 callsubr
          hstem
          -14 672 vstem
          555 -1 callsubr
          -332 -236 -54 callsubr
        </CharString>
        <CharString name="L">
          -39 75 callsubr
          -13 471 vstem
          427 hmoveto
          23 callsubr
        </CharString>
        <CharString name="Lacute">
          93 callgsubr
          169 634 -97 callgsubr
          257 -634 rmoveto
          23 callsubr
        </CharString>
        <CharString name="Lcaron">
          93 callgsubr
          158 795 -83 callsubr
          268 -795 rmoveto
          23 callsubr
        </CharString>
        <CharString name="Lcommaaccent">
          93 callgsubr
          426 hmoveto
          -53 callgsubr
          -259 -236 -54 callsubr
        </CharString>
        <CharString name="Ldot">
          -39 0 69 265 158 77 45 hstem
          353 162 vstem
          427 hmoveto
          -53 callgsubr
          88 411 -23 callgsubr
          endchar
        </CharString>
        <CharString name="Lslash">
          -43 46 callsubr
          426 hmoveto
          31 162 rlineto
          -53 hlineto
          -42 -93 rlineto
          -148 hlineto
          46 236 129 58 -26 59 -88 -40 32 164 -98 callsubr
          -45 -231 -113 -50 25 -59 73 32 -33 -169 -69 callsubr
          440 hlineto
          endchar
        </CharString>
        <CharString name="M">
          283 68 callsubr
          hstem
          -29 857 vstem
          199 hmoveto
          9 45 -75 24 85 346 60 -425 88 14 217 417 -50 -352 -84 -24 -9 -45 rlineto
          291 hlineto
          9 45 -74 24 69 477 85 23 8 45 rlineto
          -219 hlineto
          -228 -451 -59 451 rlineto
          -210 hlineto
          -8 -45 74 -23 -115 -477 -83 -24 -9 -45 rlineto
          228 hlineto
          endchar
        </CharString>
        <CharString name="N">
          162 0 45 524 45 hstem
          -13 732 11 callgsubr
          endchar
        </CharString>
        <CharString name="Nacute">
          55 callgsubr
          367 634 -97 callgsubr
          119 -20 -88 callsubr
          endchar
        </CharString>
        <CharString name="Nacute.loclPLK">
          55 callgsubr
          389 -6 callgsubr
          97 -17 -88 callsubr
          endchar
        </CharString>
        <CharString name="Ncaron">
          55 callgsubr
          327 795 -83 callsubr
          159 -181 -88 callsubr
          endchar
        </CharString>
        <CharString name="Ncommaaccent">
          162 0 45 524 45 hstem
          -13 732 11 callgsubr
          -222 -850 -54 callsubr
        </CharString>
        <CharString name="Ntilde">
          162 68 callsubr
          41 59 callsubr
          -13 732 hintmask 11101000
          607 759 -51 callsubr
          -121 -145 -88 callsubr
          endchar
        </CharString>
        <CharString name="O">
          -23 callsubr
          265 -10 -101 callgsubr
          endchar
        </CharString>
        <CharString name="OE">
          330 0 -14 callgsubr
          hstem
          36 141 vstem
          852 614 rmoveto
          -418 hlineto
          -247 -151 -170 -236 -143 85 -65 169 hvcurveto
          462 hlineto
          31 162 rlineto
          -53 hlineto
          -42 -93 rlineto
          -161 hlineto
          41 212 rlineto
          99 hlineto
          5 -69 rlineto
          48 hlineto
          37 191 rlineto
          -50 hlineto
          -29 -66 rlineto
          -99 hlineto
          51 callgsubr
          146 26 callgsubr
          -369 -72 rmoveto
          -91 -469 rlineto
          -7 -29 -31 -3 -30 hhcurveto
          -86 -39 49 105 87 33 246 200 19 27 -2 -6 27 hvcurveto
          endchar
        </CharString>
        <CharString name="Oacute">
          -23 callsubr
          361 634 -97 callgsubr
          -96 -644 -101 callgsubr
          endchar
        </CharString>
        <CharString name="Oacute.loclPLK">
          -23 callsubr
          369 -6 callgsubr
          -104 -641 -101 callgsubr
          endchar
        </CharString>
        <CharString name="Obreve">
          -4 callsubr
          23 76 hstemhm
          36 147 99 63 126 147 hintmask 00000000
          hintmask 11111100
          385 651 -103 callsubr
          -120 -661 rmoveto
          229 124 211 217 hvcurveto
          hintmask 11011100
          78 callsubr
          vhcurveto
          hintmask 11111100
          -11 callgsubr
          vhcurveto
          14 68 rmoveto
          -82 -14 54 91 hvcurveto
          hintmask 11011100
          95 29 262 164 75 20 -48 -90 vhcurveto
          hintmask 11111100
          -153 -45 -211 -147 vhcurveto
          endchar
        </CharString>
        <CharString name="Ocircumflex">
          -23 callsubr
          505 639 -96 callgsubr
          -240 -649 -101 callgsubr
          endchar
        </CharString>
        <CharString name="Odieresis">
          -4 callsubr
          19 145 hstemhm
          36 147 26 32 callgsubr
          -121 147 hintmask 00000000
          hintmask 11111100
          361 719 -103 callgsubr
          hintmask 11010010
          -327 -729 -101 callgsubr
          endchar
        </CharString>
        <CharString name="Ograve">
          -23 callsubr
          473 634 -77 callgsubr
          -208 -644 -101 callgsubr
          endchar
        </CharString>
        <CharString name="Ohorn">
          -10 83 callgsubr
          288 147 -10 98 hintmask 00000000
          hintmask 11101000
          706 644 -59 callsubr
        </CharString>
        <CharString name="Ohungarumlaut">
          -23 callsubr
          290 -6 callgsubr
          161 hmoveto
          -76 callgsubr
          -186 -641 -101 callgsubr
          endchar
        </CharString>
        <CharString name="Omacron">
          -4 callsubr
          51 79 -12 callsubr
          278 758 -30 callsubr
          -13 -768 -101 callgsubr
          endchar
        </CharString>
        <CharString name="Oslash">
          -23 callsubr
          257 -10 -24 callgsubr
        </CharString>
        <CharString name="Oslashacute">
          -23 callsubr
          251 634 -97 callgsubr
          6 -644 -24 callgsubr
        </CharString>
        <CharString name="Otilde">
          -4 callsubr
          27 94 callgsubr
          hintmask 00000000
          hintmask 11101100
          562 759 rmoveto
          12 callgsubr
          -49 callgsubr
          hintmask 11001100
          -297 -769 -101 callgsubr
          endchar
        </CharString>
        <CharString name="P">
          24 0 45 198 50 258 63 hstem
          426 132 vstem
          383 614 rmoveto
          -278 hlineto
          -9 -45 -73 callsubr
          314 hlineto
          9 46 -95 23 35 178 rlineto
          -3 7 40 -1 2 hhcurveto
          109 150 63 165 95 -55 48 -120 hvcurveto
          -124 -318 rmoveto
          49 250 rlineto
          4 13 13 1 14 hhcurveto
          56 22 -32 -50 -102 -57 -74 -82 -12 -10 1 2 -6 hvcurveto
          endchar
        </CharString>
        <CharString name="Q">
          122 -157 72 92 53 500 68 hstem
          38 146 287 146 vstem
          570 -122 rmoveto
          3 37 rlineto
          -64 hlineto
          -28 -107 48 37 -67 hvcurveto
          7 vlineto
          188 122 196 212 121 -49 92 -175 -239 -116 -212 -193 -111 47 -59 83 -54 hvcurveto
          149 -96 rlineto
          -44 68 35 -16 33 hhcurveto
          37 53 19 16 27 hvcurveto
          -300 182 rmoveto
          -66 -20 75 70 121 36 234 158 75 18 -54 -91 -119 -37 -236 -164 hvcurveto
          endchar
        </CharString>
        <CharString name="R">
          73 0 45 223 55 230 61 hstem
          422 -18 callgsubr
          endchar
        </CharString>
        <CharString name="Racute">
          73 callgsubr
          286 634 -97 callgsubr
          75 -634 rmoveto
          -89 callsubr
          endchar
        </CharString>
        <CharString name="Rcaron">
          73 callgsubr
          256 795 -83 callsubr
          105 -795 rmoveto
          -89 callsubr
          endchar
        </CharString>
        <CharString name="Rcommaaccent">
          73 0 45 223 55 230 61 hstem
          422 -18 callgsubr
          -74 -559 -54 callsubr
        </CharString>
        <CharString name="S">
          18 callsubr
          156 -18 callsubr
          endchar
        </CharString>
        <CharString name="Sacute">
          18 callsubr
          234 634 -97 callgsubr
          -78 -644 -95 callgsubr
          endchar
        </CharString>
        <CharString name="Sacute.loclPLK">
          18 callsubr
          289 -6 callgsubr
          -133 -641 -95 callgsubr
          endchar
        </CharString>
        <CharString name="Scaron">
          18 callsubr
          209 795 -83 callsubr
          -53 -805 -95 callgsubr
          endchar
        </CharString>
        <CharString name="Scedilla">
          -37 -220 44 167 68 500 69 hstemhm
          72 124 -45 99 41 130 hintmask 11110100
          421 215 rmoveto
          67 -32 44 -63 30 vhcurveto
          -67 34 rlineto
          -40 19 -23 19 44 vvcurveto
          59 44 28 65 34 28 -8 -7 16 vhcurveto
          10 -89 rlineto
          52 hlineto
          31 142 rlineto
          18 -49 -53 13 -56 hhcurveto
          -160 -86 -79 -133 -82 58 -46 35 -16 hvcurveto
          62 -31 rlineto
          43 -20 21 -23 -43 vvcurveto
          -59 -47 -37 -74 -44 -32 10 6 -19 vhcurveto
          -8 87 rlineto
          -53 hlineto
          -30 -141 rlineto
          hintmask 11101100
          42 -19 57 -9 49 -2 -34 -64 rcurveline
          -68 callgsubr
          17 37 rlineto
          hintmask 11110100
          170 9 72 94 121 vvcurveto
          endchar
        </CharString>
        <CharString name="Scircumflex">
          18 callsubr
          433 639 -96 callgsubr
          -277 -649 -95 callgsubr
          endchar
        </CharString>
        <CharString name="Scommaaccent">
          -37 -10 69 500 69 hstem
          72 124 95 130 vstem
          152 -18 callsubr
          -33 -226 -54 callsubr
        </CharString>
        <CharString name="T">
          -17 91 callgsubr
          478 54 vstem
          67 614 -35 callgsubr
          endchar
        </CharString>
        <CharString name="Tbar">
          -17 0 45 243 55 203 68 hstem
          478 54 vstem
          532 455 rmoveto
          37 159 rlineto
          -502 hlineto
          -25 -159 rlineto
          52 hlineto
          36 91 rlineto
          107 hlineto
          -40 -203 rlineto
          -153 hlineto
          -10 -55 rlineto
          153 hlineto
          -43 -219 -69 callsubr
          5 callgsubr
          -75 24 43 219 rlineto
          155 hlineto
          10 55 rlineto
          -155 hlineto
          40 203 rlineto
          105 -91 54 hlineto
          endchar
        </CharString>
        <CharString name="Tcaron">
          -17 91 callgsubr
          478 54 vstem
          220 795 -83 callsubr
          -153 -181 -35 callgsubr
          endchar
        </CharString>
        <CharString name="Thorn">
          0 0 45 87 54 241 59 83 45 hstem
          394 123 vstem
          296 486 rmoveto
          12 60 -88 callgsubr
          13 67 rlineto
          2 hlineto
          -3 6 38 -1 1 hhcurveto
          102 140 66 154 89 -51 45 -112 hvcurveto
          -58 hlineto
          -15 -79 rmoveto
          3 15 rlineto
          4 16 6 1 16 hhcurveto
          49 23 -30 -47 -107 -53 -57 -77 -11 -9 1 2 -6 hvcurveto
          43 218 rlineto
          endchar
        </CharString>
        <CharString name="U">
          -12 callgsubr
          hstem
          66 136 vstem
          537 236 -100 callgsubr
        </CharString>
        <CharString name="Uacute">
          -12 callgsubr
          hstem
          66 136 vstem
          343 634 -97 callgsubr
          194 -398 -100 callgsubr
        </CharString>
        <CharString name="Ubreve">
          -12 callgsubr
          37 76 hstem
          66 136 70 63 vstem
          375 651 -103 callsubr
          162 -415 -100 callgsubr
        </CharString>
        <CharString name="Ucircumflex">
          -12 callgsubr
          hstem
          66 136 vstem
          521 639 -96 callgsubr
          16 -403 -100 callgsubr
        </CharString>
        <CharString name="Udieresis">
          -12 callgsubr
          33 145 hstemhm
          66 136 20 32 callgsubr
          hintmask 00000000
          hintmask 11111100
          374 719 -103 callgsubr
          -68 -62 callsubr
          hintmask 11111100
          204 53 162 84 16 hvcurveto
          endchar
        </CharString>
        <CharString name="Ugrave">
          -12 callgsubr
          hstem
          66 136 vstem
          482 634 -77 callgsubr
          55 -398 -100 callgsubr
        </CharString>
        <CharString name="Uhorn">
          -12 callgsubr
          hstem
          66 136 499 98 vstem
          799 678 -9 callsubr
          -44 -23 -9 -33 vhcurveto
          -188 -105 callsubr
          60 310 83 23 rlineto
          63 14 56 38 57 vvcurveto
          endchar
        </CharString>
        <CharString name="Uhungarumlaut">
          -12 callgsubr
          hstem
          66 136 vstem
          311 -6 callgsubr
          161 hmoveto
          -76 callgsubr
          65 -395 -100 callgsubr
        </CharString>
        <CharString name="Umacron">
          -12 callgsubr
          65 79 hstem
          66 136 vstem
          294 758 -30 callsubr
          243 -522 -100 callgsubr
        </CharString>
        <CharString name="Uogonek">
          103 96 callsubr
          66 513 45 hstemhm
          66 136 -17 88 hintmask 11110000
          537 236 rmoveto
          60 310 -10 callgsubr
          -233 hlineto
          -104 callsubr
          vhcurveto
          9 9 1 9 hhcurveto
          hintmask 11101000
          -66 -43 -40 -66 -42 -47 callgsubr
          -27 -11 15 26 22 23 84 84 39 hvcurveto
          hintmask 11110000
          110 47 34 112 13 65 rrcurveto
          endchar
        </CharString>
        <CharString name="Uring">
          -12 callgsubr
          13 47 97 48 hstemhm
          66 136 108 73 82 73 hintmask 10111110
          537 -44 callgsubr
          107 -535 rmoveto
          hintmask 11111110
          60 310 -10 callgsubr
          -233 hlineto
          -104 callsubr
          vhcurveto
          hintmask 10111110
          204 53 162 84 16 hvcurveto
          endchar
        </CharString>
        <CharString name="Utilde">
          -12 callgsubr
          41 59 callsubr
          66 136 hintmask 11101000
          582 759 -51 callsubr
          -45 -523 -100 callgsubr
        </CharString>
        <CharString name="V">
          10 569 45 hstem
          35 579 vstem
          400 569 rmoveto
          61 -21 -186 -364 -42 365 66 20 -22 callgsubr
          -264 hlineto
          -9 -45 63 -24 73 -552 86 10 277 542 72 22 8 47 rlineto
          -206 hlineto
          -19 callsubr
          endchar
        </CharString>
        <CharString name="W">
          47 callgsubr
          676 569 -68 callsubr
        </CharString>
        <CharString name="Wacute">
          47 callgsubr
          446 634 -97 callgsubr
          230 -65 -68 callsubr
        </CharString>
        <CharString name="Wcircumflex">
          47 callgsubr
          598 639 -96 callgsubr
          78 -70 -68 callsubr
        </CharString>
        <CharString name="Wdieresis">
          293 569 45 33 145 hstem
          301 32 callgsubr
          vstem
          453 719 -103 callgsubr
          -8 -150 -68 callsubr
        </CharString>
        <CharString name="Wgrave">
          47 callgsubr
          516 634 -77 callgsubr
          160 -65 -68 callsubr
        </CharString>
        <CharString name="X">
          43 0 45 504 65 hstem
          -55 675 vstem
          215 297 rmoveto
          -197 -232 -65 -20 -19 callsubr
          212 hlineto
          9 46 -64 19 139 166 67 -166 -62 -16 -9 -49 rlineto
          274 hlineto
          8 45 -69 20 -105 262 199 222 67 20 -22 callgsubr
          -215 hlineto
          -10 -49 65 -16 -141 -156 -62 156 70 16 10 49 rlineto
          -272 hlineto
          -9 -45 59 -20 100 -252 rlineto
          endchar
        </CharString>
        <CharString name="Y">
          -2 callsubr
          hstemhm
          39 544 hintmask 10110000
          367 568 rmoveto
          hintmask 11010000
          31 callsubr
          hintmask 10110000
          -83 callgsubr
          -9 -46 rlineto
          endchar
        </CharString>
        <CharString name="Y.loclGUA">
          16 callsubr
          hstem
          92 136 vstem
          586 340 -97 callsubr
        </CharString>
        <CharString name="Yacute">
          -2 callsubr
          hstemhm
          42 544 hintmask 10110000
          273 634 -97 callgsubr
          97 -66 rmoveto
          hintmask 11010000
          31 callsubr
          hintmask 10110000
          -83 callgsubr
          -9 -46 rlineto
          endchar
        </CharString>
        <CharString name="Yacute.loclGUA">
          16 callsubr
          hstem
          92 136 vstem
          343 634 -97 callgsubr
          243 -294 -97 callsubr
        </CharString>
        <CharString name="Ycircumflex">
          -2 callsubr
          hstemhm
          42 544 hintmask 10110000
          459 639 -96 callgsubr
          -89 -71 rmoveto
          hintmask 11010000
          31 callsubr
          hintmask 10110000
          -83 callgsubr
          -9 -46 rlineto
          endchar
        </CharString>
        <CharString name="Ycircumflex.loclGUA">
          16 callsubr
          hstem
          92 136 vstem
          538 639 -96 callgsubr
          48 -299 -97 callsubr
        </CharString>
        <CharString name="Ydieresis">
          -2 callsubr
          33.5 145 hstemhm
          166 32 callgsubr
          hintmask 10111100
          318 719 -103 callgsubr
          -179 -151 rmoveto
          hintmask 11011100
          31 callsubr
          hintmask 10111100
          -83 callgsubr
          -9 -46 rlineto
          endchar
        </CharString>
        <CharString name="Ydieresis.loclGUA">
          16 callsubr
          33 145 hstemhm
          92 136 1 32 callgsubr
          hintmask 00000000
          hintmask 11110110
          381 719 -103 callgsubr
          -26 -379 rmoveto
          39 206 -10 callgsubr
          20 callsubr
          -58 -313 -6 -34 rlineto
          hintmask 11111010
          -48 -31 -62 -34 -46 hhcurveto
          -60 -23 24 73 17 5 45 8 40 hvcurveto
          44 230 -98 callsubr
          -44 -229 rlineto
          -7 -37 -6 -37 -32 vvcurveto
          -113 42 -56 130 67 55 19 28 45 vhcurveto
          -1 -5 rlineto
          -104 -18 -45 -66 -120 hhcurveto
          -38 -46 12 21 -30 hvcurveto
          -6 80 rlineto
          -52 hlineto
          -39 -144 rlineto
          -34 54 73 -16 74 hhcurveto
          143 121 44 212 39 hvcurveto
          hintmask 11110110
          46 251 rlineto
          endchar
        </CharString>
        <CharString name="Ygrave">
          -2 callsubr
          hstemhm
          42 544 hintmask 10110000
          413 634 -77 callgsubr
          -43 -66 rmoveto
          hintmask 11010000
          31 callsubr
          hintmask 10110000
          -83 callgsubr
          -9 -46 rlineto
          endchar
        </CharString>
        <CharString name="Ygrave.loclGUA">
          16 callsubr
          hstem
          92 136 vstem
          484 634 -77 callgsubr
          102 -294 -97 callsubr
        </CharString>
        <CharString name="Z">
          62 callgsubr
          441 162 -70 callgsubr
          endchar
        </CharString>
        <CharString name="Zacute">
          62 callgsubr
          232 634 -97 callgsubr
          209 -472 -70 callgsubr
          endchar
        </CharString>
        <CharString name="Zacute.loclPLK">
          62 callgsubr
          289 -6 callgsubr
          152 -469 -70 callgsubr
          endchar
        </CharString>
        <CharString name="Zcaron">
          62 callgsubr
          214 795 -83 callsubr
          227 -633 -70 callgsubr
          endchar
        </CharString>
        <CharString name="Zdotaccent">
          -37 0 69 477 68 21 164 hstemhm
          223 168 hintmask 00000000
          hintmask 11110000
          391 -38 callgsubr
          50 -553 rmoveto
          -53 hlineto
          -54 -93 rlineto
          -200 hlineto
          hintmask 11010000
          388 512 rlineto
          33 -433 vlineto
          -19 -146 rlineto
          55 hlineto
          37 78 rlineto
          187 hlineto
          -388 -513 10 -33 rlineto
          431 hlineto
          hintmask 11110000
          39 162 rlineto
          endchar
        </CharString>
        <CharString name="a">
          -34 callgsubr
          -8 callsubr
          hintmask 10110000
          446 215 -86 callgsubr
        </CharString>
        <CharString name="aacute">
          -34 callgsubr
          -8 callsubr
          hintmask 10110000
          258 576 -97 callgsubr
          188 -361 -86 callgsubr
        </CharString>
        <CharString name="abreve">
          -34 callgsubr
          76 76 56 callgsubr
          hintmask 10111100
          319 591 -32 callsubr
          -376 -81 callgsubr
          vhcurveto
          hintmask 01111110
          -52 callgsubr
          hintmask 10111110
          -84 callgsubr
          hintmask 10111100
          -25 callsubr
          hintmask 01111100
          -98 callgsubr
          endchar
        </CharString>
        <CharString name="acircumflex">
          -34 callgsubr
          -8 callsubr
          hintmask 10110000
          432 575 -87 callsubr
          14 -360 -86 callgsubr
        </CharString>
        <CharString name="acute">
          92 callsubr
          105 576 -97 callgsubr
          endchar
        </CharString>
        <CharString name="acute.case">
          -252 634 166 hstem
          89 255 vstem
          116 634 -97 callgsubr
          endchar
        </CharString>
        <CharString name="acute.loclPLK">
          -252 564 183 hstem
          124 184 vstem
          155 -6 callsubr
          endchar
        </CharString>
        <CharString name="acute.loclPLK.case">
          -252 631 183 hstem
          115 184 vstem
          146 -6 callgsubr
          endchar
        </CharString>
        <CharString name="acutecomb">
          88 callgsubr
          -139 634 -97 callgsubr
          endchar
        </CharString>
        <CharString name="adieresis">
          -34 callgsubr
          70 145 43 callsubr
          -41 152 17 208 -144 150 hintmask 00000000
          hintmask 10110101
          278 657 -103 callgsubr
          -63 -442 rmoveto
          59 308 -68 10 -33 -33 rlineto
          0 -46 15 -48 vhcurveto
          hintmask 01111010
          -151 -127 -147 -225 -13 callgsubr
          hvcurveto
          hintmask 10111010
          -84 callgsubr
          hintmask 10110101
          -25 callsubr
          hintmask 01111000
          -98 callgsubr
          endchar
        </CharString>
        <CharString name="ae">
          52 callgsubr
          hintmask 00000000
          hintmask 10110110
          730 416 -47 callsubr
        </CharString>
        <CharString name="aeacute">
          52 callgsubr
          hintmask 10101110
          571 685 13 callsubr
          hintmask 10110110
          159 -269 -47 callsubr
        </CharString>
        <CharString name="agrave">
          -34 callgsubr
          -8 callsubr
          hintmask 10110000
          412 578 -77 callgsubr
          34 -363 -86 callgsubr
        </CharString>
        <CharString name="amacron">
          -34 callgsubr
          103 79 -8 callsubr
          hintmask 10111000
          216 -27 callsubr
          230 -482 -81 callgsubr
          vhcurveto
          hintmask 01111100
          -52 callgsubr
          hintmask 10111100
          -84 callgsubr
          hintmask 10111000
          -25 callsubr
          hintmask 01111000
          -98 callgsubr
          endchar
        </CharString>
        <CharString name="ampersand">
          93 -12 74 131 80 276 80 hstemhm
          20 134 -11 132 45.5 35.5 hintmask 11110100
          500 195 rmoveto
          88 -4 rlineto
          82 -271 vlineto
          7 -68 64 -4 -24 -122 rlineto
          -7 -21 -33 -10 -44 hhcurveto
          -63 -49 27 66 125 72 30 130 7 hvcurveto
          63 vlineto
          hintmask 11101100
          -61 14 -20 24 51 vvcurveto
          46 25 34 53 31 23 -5 -9 25 vhcurveto
          4 -87 rlineto
          64 hlineto
          34 149 rlineto
          19 -52 -61 13 -59 hhcurveto
          -102 -117 -42 -111 -56 35 -35 41 -20 hvcurveto
          hintmask 11110100
          -119 -25 -80 -88 -99 vvcurveto
          -108 84 -57 127 100 82 22 26 57 vhcurveto
          30 159 rlineto
          endchar
        </CharString>
        <CharString name="aogonek">
          39 96 callsubr
          2 callgsubr
          67 43 callsubr
          128 88 -88 208 hintmask 10111100
          446 215 -81 callgsubr
          -9 callgsubr
          vhcurveto
          hintmask 10111010
          51 47 39 57 37 hvcurveto
          hintmask 11011010
          0 -4 -33 -11 vvcurveto
          -37 27 -16 40 vhcurveto
          hintmask 11011100
          10 11 1 1 11 hvcurveto
          -97 -77 -2 -58 -17 -47 callgsubr
          -24 -14 15 26 hvcurveto
          hintmask 11011010
          16 10 77 110 58 vhcurveto
          48 -74 vlineto
          hintmask 10111100
          -25 callsubr
          -98 callgsubr
          endchar
        </CharString>
        <CharString name="approxequal">
          3 154 81 -23 80 16 81 -23 80 hstemhm
          30 450 hintmask 00000000
          hintmask 10011000
          30 341 rmoveto
          32 callsubr
          hintmask 10011000
          -47 -42 -31 -74 -36 hvcurveto
          hintmask 01101000
          -154 vmoveto
          32 callsubr
          hintmask 01101000
          -47 -42 -31 -74 -36 hvcurveto
          endchar
        </CharString>
        <CharString name="aring">
          -34 callgsubr
          43 52 107 53 43 callsubr
          51 74 3 208 -129 74 hintmask 1011111010000000
          447 -16 callsubr
          105 -502 -81 callgsubr
          vhcurveto
          hintmask 0111110100000000
          -52 callgsubr
          hintmask 1011110100000000
          -84 callgsubr
          hintmask 1011111010000000
          -25 callsubr
          hintmask 0111111010000000
          -98 callgsubr
          endchar
        </CharString>
        <CharString name="aringacute">
          39 -10 2 callgsubr
          104 97 48 43 callsubr
          62 73 -7 208 -119 73 hintmask 10111101
          560 824 rmoveto
          -99 34 -156 -131 25 -33 rlineto
          -71 -12 -30 -50 -56 vvcurveto
          -31 17 -22 30 -10 vhcurveto
          -135 -21 -109 -141 -208 vvcurveto
          hintmask 01111010
          -52 callgsubr
          hintmask 10111010
          -79 callsubr
          vlineto
          hintmask 10111101
          -74 hlineto
          -25 callsubr
          59 308 -68 10 -33 -33 rlineto
          0 -15 5 -23 4 vhcurveto
          53 12 29 36 8 46 rrcurveto
          45 callsubr
          -176 -206 rmoveto
          -29 -9 -37 -41 -29 -3 14 18 29 8 36 39 24 11 -14 -17 vhcurveto
          hintmask 01111101
          -80 -463 -33 callsubr
        </CharString>
        <CharString name="arrowdown">
          51 28 476 hstem
          238.5 93.5 vstem
          61 325 rmoveto
          216 -297 rlineto
          16 hlineto
          202 297 -38 41 -132 -156 14 294 rlineto
          -106 hlineto
          11 -296 -142 157 -41 -40 rlineto
          endchar
        </CharString>
        <CharString name="arrowleft">
          89 callgsubr
          40 476 vstem
          220 308 rmoveto
          157 132 -41 37 -296 -201 rlineto
          -17 vlineto
          296 -215 40 39 -158 144 298 -11 rlineto
          106 vlineto
          -296 -14 rlineto
          endchar
        </CharString>
        <CharString name="arrowright">
          89 callgsubr
          42 476 vstem
          220 44 rmoveto
          298 215 rlineto
          17 vlineto
          -298 201 -40 -37 157 -132 -295 14 rlineto
          -106 vlineto
          296 11 -52 -47 -54 -50 -51 -47 rlinecurve
          39 -39 rlineto
          endchar
        </CharString>
        <CharString name="arrowup">
          51 19 474 hstem
          226.5 93 vstem
          496 199 rmoveto
          -215 294 rlineto
          -19 hlineto
          -200 -294 37 -41 134 156 -13 -295 rlineto
          105 hlineto
          -11 297 142 -157 40 40 rlineto
          endchar
        </CharString>
        <CharString name="asciicircum">
          -55 249 365 hstem
          19 413 vstem
          342 249 rmoveto
          90 hlineto
          -181 365 rlineto
          -50 hlineto
          -182 -365 rlineto
          90 hlineto
          117 240 116 -240 rlineto
          endchar
        </CharString>
        <CharString name="asciitilde">
          10 195 78 -24 76 hstemhm
          49 422 hintmask 00000000
          hintmask 01100000
          163 249 rmoveto
          66 45 -54 65 hhcurveto
          hintmask 10100000
          50 44 34 69 38 hvcurveto
          -52 27 rlineto
          -39 -25 -16 -13 -35 hhcurveto
          hintmask 01100000
          -53 -60 52 -63 hhcurveto
          -43 -42 -29 -69 -33 hvcurveto
          48 -26 rlineto
          34 25 18 14 23 hhcurveto
          endchar
        </CharString>
        <CharString name="asterisk">
          -155 416 337 hstemhm
          57 352 -198.5 193 hintmask 11000000
          294 568 rmoveto
          hintmask 10100000
          115 18 -11 99 -113 -52 -8 6 38 114 rlineto
          -102 hlineto
          -5 -114 -7 -6 -96 52 -48 -99 106 -18 1 -10 -94 -81 74 -61 69 100 rlineto
          11 hlineto
          32 -100 96 61 -63 81 rlineto
          hintmask 11000000
          3 3 1 3 1 4 rrcurveto
          endchar
        </CharString>
        <CharString name="at">
          229 -78 71 66 77 -77 97 198 62 76 63 hstemhm
          6 105 66 112 114 96 116 104 hintmask 1011111110000000
          421 555 rmoveto
          -248 -167 -165 -201 -161 116 -106 176 86 92 24 43 77 hvcurveto
          -21 49 rlineto
          -28 -64 -79 -17 -62 hhcurveto
          -135 -81 73 121 163 123 142 186 131 64 -71 -117 -88 -39 -60 -56 -16 -5 6 17 hvcurveto
          53 55 184 7 vvcurveto
          4 -15 3 -18 vhcurveto
          -28 -1 -15 -24 rlineto
          5 -21 -54 6 -24 hhcurveto
          -113 -89 -102 -129 hvcurveto
          hintmask 1101111110000000
          -83 33 -43 64 54 45 29 54 33 vhcurveto
          hintmask 1011111110000000
          -2 -7 -1 -12 -11 vvcurveto
          -36 26 -17 56 135 99 104 140 151 -109 101 -189 vhcurveto
          hintmask 1101111110000000
          -108 -419 rmoveto
          -22 -2 17 28 95 41 78 53 16 6 -1 -5 13 hvcurveto
          -117 -19 -27 -95 -59 hhcurveto
          endchar
        </CharString>
        <CharString name="atilde">
          -34 callgsubr
          78 92 -55 92 -8 callsubr
          hintmask 10110100
          516 697 -52 callsubr
          hintmask 10101100
          -55 callsubr
          hintmask 10110100
          38 80 -64 callsubr
          -70 -482 -81 callgsubr
          vhcurveto
          hintmask 01110110
          -52 callgsubr
          hintmask 10110110
          -84 callgsubr
          hintmask 10110100
          -25 callsubr
          hintmask 01110100
          -98 callgsubr
          endchar
        </CharString>
        <CharString name="b">
          17 -9 69 372 83 hstem
          360 135 vstem
          75 660 rmoveto
          72 -8 -124 -625 rlineto
          -15 29 62 -21 94 88 callsubr
          -51 -44 -29 -56 -47 hvcurveto
          -1 4 49 257 1 22 rrcurveto
          13 -8 12 -17 -46 -82 -17 -20 -59 vhcurveto
          10 -41 rlineto
          249 -228 rmoveto
          100 callsubr
          -34 -19 8 15 -13 hvcurveto
          93 19 32 177 1 hhcurveto
          41 33 42 38 32 hhcurveto
          endchar
        </CharString>
        <CharString name="backslash">
          -131 -139 837 hstem
          3 370 vstem
          102 698 rmoveto
          -99 hlineto
          274 -837 rlineto
          96 hlineto
          -271 837 rlineto
          endchar
        </CharString>
        <CharString name="bar">
          -134 -139 837 hstem
          129 115 vstem
          244 698 rmoveto
          -115 -837 115 837 hlineto
          endchar
        </CharString>
        <CharString name="braceleft">
          -172 -193 908 hstem
          31 359 vstem
          194 678 rmoveto
          -52 -374 -80 -37 -3 -15 67 -34 -95 -376 180 -35 19 41 -84 37 94 344 -72 31 84 31 40 344 98 37 -3 43 -193 -37 rlineto
          endchar
        </CharString>
        <CharString name="braceright">
          -172 -193 908 hstem
          -51 357 vstem
          212 304 rmoveto
          94 374 -179 37 -19 -43 84 -37 -94 -344 72 -31 -84 -31 -40 -344 -97 -37 3 -41 191 35 53 376 79 34 3 15 -66 37 rlineto
          endchar
        </CharString>
        <CharString name="bracketleft">
          71 callgsubr
          3 403 vstem
          238 -167 rmoveto
          10 48 -118 9 147 753 120 8 9 47 rlineto
          -235 hlineto
          -168 -865 rlineto
          235 hlineto
          endchar
        </CharString>
        <CharString name="bracketright">
          71 callgsubr
          -71 401 vstem
          96 698 rmoveto
          -9 -47 118 -8 -147 -753 -119 -9 -10 -48 rlineto
          233 hlineto
          168 865 rlineto
          -234 hlineto
          endchar
        </CharString>
        <CharString name="breve">
          -252 591 76 hstem
          91 63 vstem
          194 591 -103 callsubr
          endchar
        </CharString>
        <CharString name="breve.case">
          -252 651 76 hstem
          103 63 vstem
          206 651 -103 callsubr
          endchar
        </CharString>
        <CharString name="brokenbar">
          -102 375 323 hstemhm
          129 115 hintmask 00000000
          hintmask 11000000
          244 698 rmoveto
          -115 -323 115 323 hlineto
          -513 vmoveto
          -115 -324 115 324 hlineto
          endchar
        </CharString>
        <CharString name="bullet">
          -40 204 290 hstem
          109 293 vstem
          402 349 rmoveto
          81 -66 64 -80 -80 -67 -64 -81 -81 67 -64 80 80 66 64 81 vhcurveto
          endchar
        </CharString>
        <CharString name="c">
          31 callgsubr
          341 439 -75 callsubr
        </CharString>
        <CharString name="cacute">
          31 callgsubr
          231 576 -97 callgsubr
          110 -137 -75 callsubr
        </CharString>
        <CharString name="cacute.loclPLK">
          31 callgsubr
          279 -6 callsubr
          62 -125 -75 callsubr
        </CharString>
        <CharString name="caron">
          -252 577 166 hstem
          76 284 vstem
          117 -72 callgsubr
          endchar
        </CharString>
        <CharString name="caron.case">
          -252 639 156 hstem
          81 295 vstem
          111 795 -83 callsubr
          endchar
        </CharString>
        <CharString name="ccaron">
          31 callgsubr
          220 -72 callgsubr
          121 -304 -75 callsubr
        </CharString>
        <CharString name="ccedilla">
          -100 -220 44 166 77 377 71 hstemhm
          30 136 10 99 hintmask 11110000
          341 439 rmoveto
          10 -89 rlineto
          54 hlineto
          33 143 rlineto
          16 -34 -40 6 -40 hhcurveto
          -199 -95 -165 -199 -100 54 -47 74 -11 hvcurveto
          hintmask 11111000
          -35 -66 -68 callgsubr
          17 36 47 1 55 12 47 33 rlinecurve
          -12 49 rlineto
          hintmask 11110000
          -12 -38 -31 -6 -26 hhcurveto
          -61 -19 39 68 133 29 137 104 14 15 -1 -4 13 hvcurveto
          endchar
        </CharString>
        <CharString name="ccircumflex">
          31 callgsubr
          411 575 -87 callsubr
          -70 -136 -75 callsubr
        </CharString>
        <CharString name="cdotaccent">
          -100 -10 77 377 71 70 149 hstem
          30 136 83 151 vstem
          324 -66 callgsubr
          17 -295 -75 callsubr
        </CharString>
        <CharString name="cedilla">
          -252 -220 44 hstem
          53 99 vstem
          64 -46 rmoveto
          25 52 rlineto
          -46 hlineto
          -43 -79 -68 callgsubr
          endchar
        </CharString>
        <CharString name="cent">
          31 34 79 392 73 hstem
          90 142 vstem
          224 36 rmoveto
          -25 -122 rlineto
          72 hlineto
          25 120 42 5 47 13 41 29 rlinecurve
          -12 50 rlineto
          -12 -40 -32 -6 -27 hhcurveto
          -63 -20 40 71 139 30 142 108 15 16 -1 -4 13 hvcurveto
          10 -93 rlineto
          57 hlineto
          34 149 -30 14 -34 7 -35 1 rlinecurve
          25 122 rlineto
          -72 hlineto
          -26 -126 rlineto
          -171 -27 -82 -159 -188 vvcurveto
          -104 56 -49 78 -11 vhcurveto
          endchar
        </CharString>
        <CharString name="circumflex">
          -252 575 166 hstem
          57 279 vstem
          297 575 -87 callsubr
          endchar
        </CharString>
        <CharString name="circumflex.case">
          -252 639 156 hstem
          61 295 vstem
          326 639 -96 callgsubr
          endchar
        </CharString>
        <CharString name="colon">
          -287 -8 158 190 158 hstemhm
          6 162 -101 162 hintmask 00000000
          hintmask 11010000
          229 417 -23 callgsubr
          hintmask 11100000
          -61 -348 -23 callgsubr
          endchar
        </CharString>
        <CharString name="comma">
          -300 -115 256 hstem
          -37 187 vstem
          12 -115 68 callgsubr
        </CharString>
        <CharString name="commaaccentInverted">
          -337 561 212 hstem
          12 149 vstem
          118 71 callsubr
          endchar
        </CharString>
        <CharString name="copyright">
          -12 210 33 50 35 250 35 52 33 hstemhm
          5 37 56 80 120 48 -44.5 41.5 113 35 hintmask 1111110110000000
          5 callsubr
          hintmask 1111111010000000
          306 -141 rmoveto
          -4 66 rlineto
          -33 hlineto
          -13 -45 rlineto
          -5 -17 -10 -1 -13 hhcurveto
          -61 -19 63 61 63 15 63 67 hvcurveto
          hintmask 1111110110000000
          12 10 -2 -4 16 hvcurveto
          7 -50 rlineto
          33 hlineto
          10 76 rlineto
          9 -30 -34 6 -33 hhcurveto
          -110 -43 -72 -89 -87 44 -72 109 hvcurveto
          hintmask 1111111010000000
          39 29 7 13 29 hvcurveto
          endchar
        </CharString>
        <CharString name="currency">
          31 47 84 238 83 hstem
          86 86 242 85 vstem
          41 79 rmoveto
          37 -50 66 54 rlineto
          -23 28 38 -13 44 hhcurveto
          43 43 12 24 38 hvcurveto
          43 -53 57 50 -43 51 rlineto
          39 42 25 58 54 vvcurveto
          29 -7 27 -11 25 vhcurveto
          63 53 -39 48 -63 -53 rlineto
          24 -28 -39 14 -43 hhcurveto
          -44 -42 -14 -24 -38 hvcurveto
          -42 54 -59 -49 43 -53 rlineto
          -39 -44 -25 -55 -58 vvcurveto
          -28 6 -27 12 -23 vhcurveto
          -63 -52 rlineto
          133 170 rmoveto
          66 13 63 54 65 hhcurveto
          58 41 -42 -55 -75 -72 -66 -73 -57 -40 41 54 7 0 8 2 8 hvcurveto
          endchar
        </CharString>
        <CharString name="d">
          32 -10 76 -76 82 374 69 49 callgsubr
          hintmask 10110000
          403 652 rmoveto
          -29 -144 3 callsubr
          hvcurveto
          hintmask 01111000
          27 callgsubr
          vhcurveto
          hintmask 10111000
          -50 callsubr
          hintmask 10110000
          73 -8 rlineto
          hintmask 01110000
          -201 -580 -46 callgsubr
          endchar
        </CharString>
        <CharString name="dagger">
          -57 0 649 hstem
          82 372 vstem
          239 hmoveto
          63 440 36 callsubr
          -111 -440 rlineto
          130 hlineto
          endchar
        </CharString>
        <CharString name="daggerdbl">
          -51 0 649 hstem
          191.5 129.5 vstem
          191 325 rmoveto
          1 -115 -130 20 -21 -108 136 18 -44 -140 rlineto
          121 hlineto
          7 140 131 -18 21 108 -139 -20 47 115 rlineto
          115 vlineto
          36 callsubr
          -48 -115 rlineto
          endchar
        </CharString>
        <CharString name="dcaron">
          71 -10 76 -76 82 374 69 12 212 49 callgsubr
          hintmask 00000000
          hintmask 10111000
          555 7 callsubr
          -152 -87 rmoveto
          hintmask 01101100
          -29 -144 3 callsubr
          27 callgsubr
          hvcurveto
          hintmask 10101100
          -50 callsubr
          hintmask 10111000
          73 -8 rlineto
          hintmask 01101000
          -201 -580 -46 callgsubr
          endchar
        </CharString>
        <CharString name="dcroat">
          35 -10 76 -76 82 374 69 53 60 41 69 49 callgsubr
          hintmask 10110100
          386 568 rmoveto
          -12 -60 3 callsubr
          hvcurveto
          hintmask 01110110
          27 callgsubr
          vhcurveto
          hintmask 10111110
          0 -4 -31 -13 vvcurveto
          -36 25 -17 41 38 49 6 22 55 vhcurveto
          48 -74 vlineto
          1 1 71 80 16 hvcurveto
          0 38 204 26 147 vhcurveto
          80 60 -69 hlineto
          8 45 5 34 7 vvcurveto
          14 -8 10 -18 -46 -61 -5 -18 -78 vhcurveto
          10 -42 73 -8 -8 -37 rlineto
          -161 -60 hlineto
          hintmask 10110100
          149 hlineto
          hintmask 01110100
          -184 -496 -46 callgsubr
          endchar
        </CharString>
        <CharString name="degree">
          -64 402 51 214 52 hstem
          63 67 183 67 vstem
          380 559 rmoveto
          87 -71 73 -88 -86 -72 -73 -87 -88 72 -69 86 88 71 69 88 vhcurveto
          -159 108 rmoveto
          58 34 -48 -60 -60 -34 -46 -58 -58 -33 46 60 60 33 48 58 hvcurveto
          endchar
        </CharString>
        <CharString name="dieresis">
          -252 585 145 hstem
          15 32 callgsubr
          vstem
          167 657 -103 callgsubr
          endchar
        </CharString>
        <CharString name="dieresis.case">
          -252 647 145 hstem
          27 32 callgsubr
          vstem
          179 719 -103 callgsubr
          endchar
        </CharString>
        <CharString name="divide">
          3 87 127 48 79 48 127 hstem
          193 127 vstem
          256 516 64 callgsubr
          206 -175 49 callsubr
          -206 -127 64 callgsubr
          endchar
        </CharString>
        <CharString name="dollar">
          3 2 60 391 164 -60 161 hstemhm
          80 120 120 123 hintmask 10111000
          157 2 rmoveto
          -24 -120 rlineto
          66 hlineto
          24 123 rlineto
          150 16 70 90 107 vvcurveto
          59 -28 35 -49 23 vhcurveto
          -94 44 rlineto
          -42 20 -30 19 39 vvcurveto
          80 79 20 53 22 38 -5 -5 15 vhcurveto
          hintmask 11011000
          3 -94 rlineto
          52 hlineto
          hintmask 10111000
          36 134 -44 15 -46 12 -49 3 rlinecurve
          20 101 rlineto
          -68 hlineto
          -20 -103 rlineto
          -126 -14 -85 -83 -126 vvcurveto
          -1 -62 33 -30 43 -20 92 -43 rcurveline
          48 -22 25 -16 -34 vvcurveto
          -66 -59 -37 -78 -38 -35 9 6 -21 vhcurveto
          1 82 rlineto
          -55 hlineto
          -38 -127 46 -18 60 -10 54 -2 rlinecurve
          endchar
        </CharString>
        <CharString name="dotaccent">
          -252 585 149 hstem
          132 151 vstem
          207 -66 callgsubr
          endchar
        </CharString>
        <CharString name="dotaccent.case">
          -252 635 164 hstem
          135 168 vstem
          303 -38 callgsubr
          endchar
        </CharString>
        <CharString name="dotbelowcomb">
          -507 -1 callgsubr
          hstem
          -274 151 vstem
          -199 -40 -102 callgsubr
          endchar
        </CharString>
        <CharString name="dotlessi">
          46 callgsubr
          214 hintmask 10100000
          262 493 4 callgsubr
          hintmask 11000000
          -92 callsubr
          hintmask 10100000
          15 callsubr
        </CharString>
        <CharString name="e">
          -68 7 callgsubr
          320 515 -104 callgsubr
          endchar
        </CharString>
        <CharString name="eacute">
          -74 7 callgsubr
          234 576 -97 callgsubr
          86 -61 -104 callgsubr
          endchar
        </CharString>
        <CharString name="ebreve">
          19 callgsubr
          76 76 97 callsubr
          11 63 93 116 hintmask 00000000
          hintmask 11111110
          278 591 -103 callsubr
          42 -76 rmoveto
          hintmask 11111010
          -56 callsubr
          -93 callsubr
          hvcurveto
          hintmask 11111110
          44 callgsubr
          vhcurveto
          -5 callgsubr
          hvcurveto
          hintmask 11111010
          -71 -64 -43 -92 vhcurveto
          hintmask 11111110
          98 17 43 57 56 hhcurveto
          endchar
        </CharString>
        <CharString name="ecaron">
          -74 7 callgsubr
          218 -72 callgsubr
          102 -228 -104 callgsubr
          endchar
        </CharString>
        <CharString name="ecircumflex">
          -74 7 callgsubr
          399 575 -87 callsubr
          -79 -60 -104 callgsubr
          endchar
        </CharString>
        <CharString name="edieresis">
          55 callsubr
          70 145 97 callsubr
          -69 32 callgsubr
          -147 116 hintmask 00000000
          hintmask 11110110
          247 657 -103 callgsubr
          hintmask 11111001
          -158 -142 -104 callgsubr
          endchar
        </CharString>
        <CharString name="edotaccent">
          55 callsubr
          70 149 97 callsubr
          73 151 -57 116 hintmask 00000000
          hintmask 11111100
          312 -66 callgsubr
          hintmask 11111010
          8 -219 -104 callgsubr
          endchar
        </CharString>
        <CharString name="egrave">
          -74 7 callgsubr
          390 576 -77 callgsubr
          -70 -61 -104 callgsubr
          endchar
        </CharString>
        <CharString name="eight">
          -39 callgsubr
        </CharString>
        <CharString name="eight.dnom">
          -94 -4 52 341 53 hstemhm
          26 50 callsubr
          hintmask 11100100
          26 80 -27 callgsubr
        </CharString>
        <CharString name="eight.numr">
          -94 164 52 341 53 hstemhm
          26 50 callsubr
          hintmask 11100100
          26 248 -27 callgsubr
        </CharString>
        <CharString name="eight.osf">
          -39 callgsubr
        </CharString>
        <CharString name="ellipsis">
          72 -8 146 hstem
          -10 146 42 146 42 145 vstem
          -10 62 rmoveto
          -40 33 -30 40 40 33 30 40 43 -33 33 -40 -40 -33 92 callgsubr
          34 30 40 43 -34 33 -41 -39 -32 92 callgsubr
          33 30 40 43 -33 33 -41 -39 -32 -33 -43 vhcurveto
          endchar
        </CharString>
        <CharString name="emacron">
          55 callsubr
          103 79 hstem
          62 callsubr
          vstem
          190 -27 callsubr
          130 -182 -104 callgsubr
          endchar
        </CharString>
        <CharString name="emdash">
          327 203 74 hstem
          0 833 vstem
          833 203 rmoveto
          74 -833 -74 833 vlineto
          endchar
        </CharString>
        <CharString name="endash">
          213 203 74 hstem
          0 720 vstem
          720 203 rmoveto
          74 -720 -74 720 vlineto
          endchar
        </CharString>
        <CharString name="eng">
          62 -184 71 536 92 hstem
          380 134 vstem
          452 515 rmoveto
          -45 -80 -29 -68 -77 hvcurveto
          -69 callgsubr
          39 35 60 36 27 hhcurveto
          18 1 -14 -11 -34 -6 -39 -67 -341 hvcurveto
          -75 -15 -41 -22 -44 hhcurveto
          -23 -26 6 9 -22 hvcurveto
          -17 -52 rlineto
          -17 31 47 -17 56 hhcurveto
          105 60 61 98 18 hvcurveto
          65 354 13 76 43 vvcurveto
          44 -12 23 -50 vhcurveto
          endchar
        </CharString>
        <CharString name="eogonek">
          -74 96 callsubr
          -26 callsubr
          97 callsubr
          -14 88 93 116 hintmask 11111010
          320 515 rmoveto
          -56 callsubr
          hvcurveto
          hintmask 11110110
          20 17 1 2 16 hvcurveto
          -58 -51 -36 -49 -53 -47 callgsubr
          -27 -11 15 26 53 52 65 63 43 hvcurveto
          5 3 4 2 4 3 -11 45 rcurveline
          -1 4 rlineto
          hintmask 11111010
          -78 callsubr
          -13 callsubr
          44 callgsubr
          hvcurveto
          -29 -71 6 callgsubr
        </CharString>
        <CharString name="equal">
          3 173 79 98 79 hstem
          40 414 vstem
          40 429 rmoveto
          -79 414 79 -414 vlineto
          -177 vmoveto
          -79 414 79 -414 vlineto
          endchar
        </CharString>
        <CharString name="estimated">
          192 -12 47 254 45 242 43 hstem
          28 137 354 140 vstem
          170 289 rmoveto
          489 14 hlineto
          176 -140 140 -176 -174 -141 -140 -176 -174 141 -141 174 103 108 53 78 49 vhcurveto
          -67 hlineto
          -51 -50 -60 -33 -82 hhcurveto
          -75 -47 29 44 -50 hvcurveto
          -3 4 -4 7 8 vvcurveto
          159 vlineto
          2 3 1 2 vhcurveto
          349 193 rmoveto
          -144 vlineto
          -2 -1 -2 -2 vhcurveto
          -346 hlineto
          -2 -3 2 2 hvcurveto
          141 vlineto
          8 4 7 4 6 vhcurveto
          38 31 58 38 82 hhcurveto
          89 44 -30 -44 35 hvcurveto
          4 -5 3 -7 -8 vvcurveto
          endchar
        </CharString>
        <CharString name="eth">
          -17 callgsubr
          hstem
          -29 callsubr
          vstem
          327 515 rmoveto
          -5 hlineto
          -176 -117 -136 -237 -89 46 -63 104 168 115 123 212 12 hvcurveto
          5 1 6 5 vvcurveto
          20 vlineto
          -1 87 -33 95 -61 84 82 53 rcurveline
          -31 48 -87 -55 -28 31 -32 29 -35 27 rlinecurve
          -44 -42 28 -31 23 -29 19 -29 rlinecurve
          -84 -53 31 -50 82 53 9 -20 8 -21 6 -23 rlinecurve
          -118 -459 rmoveto
          -38 -7 34 52 113 20 192 111 37 8 -34 -52 -135 -26 -170 -105 hvcurveto
          endchar
        </CharString>
        <CharString name="exclam">
          -227 -8 143 hstem
          31 147 vstem
          169 188 rmoveto
          112 426 rlineto
          -147 hlineto
          -52 -426 rlineto
          87 hlineto
          9 -127 65 callgsubr
          endchar
        </CharString>
        <CharString name="exclamdown">
          -227 372 143 hstem
          112 147 vstem
          259 441 65 callgsubr
          -107 -562 rmoveto
          53 428 rlineto
          -87 hlineto
          -113 -428 rlineto
          147 hlineto
          endchar
        </CharString>
        <CharString name="f">
          -201 87 callgsubr
          596 vstem
          432 649 rmoveto
          19 58 rlineto
          18 -34 -48 13 -41 hhcurveto
          -125 -41 -72 -97 -17 hvcurveto
          -13 -70 -97 -27 13 -50 -41 callsubr
          70 450 rlineto
          104 70 -92 hlineto
          13 72 12 72 13 18 62 1 rlinecurve
          21 30 -4 -2 28 hvcurveto
          endchar
        </CharString>
        <CharString name="f_f">
          105 87 callgsubr
          902 vstem
          634 738 rmoveto
          -125 -41 -72 -97 -17 hvcurveto
          -13 -70 -93 -26 rlineto
          19 -92 vlineto
          13 72 12 72 13 61 callgsubr
          -125 -41 -72 -97 -17 hvcurveto
          -13 -70 -97 -27 13 -50 -41 callsubr
          70 450 rlineto
          104 35 hlineto
          9 -35 -41 callsubr
          70 450 rlineto
          104 70 -92 hlineto
          13 72 12 72 13 54 callsubr
        </CharString>
        <CharString name="fi">
          82 -184 69 105 76 356 70 93 149 -79 83 hstemhm
          331 205 -96 151 hintmask 11101010
          415 652 rmoveto
          17 64 rlineto
          15 -26 -33 7 -49 hhcurveto
          -114 -44 -72 -97 -17 hvcurveto
          -13 -70 -97 -27 13 -50 -41 callsubr
          hintmask 11101100
          70 450 rlineto
          163 hlineto
          -28 -135 -49 -211 -28 vvcurveto
          -47 24 -11 46 38 49 8 20 48 57 callsubr
          33 147 46 242 15 vvcurveto
          13 -8 9 -13 vhcurveto
          -262 hlineto
          13 72 12 72 13 18 62 1 rlinecurve
          hintmask 11101010
          21 9 -1 -2 28 hvcurveto
          hintmask 11110010
          100 82 -102 callgsubr
          endchar
        </CharString>
        <CharString name="five">
          3 -13 76 259 73 139 80 hstem
          321 135 vstem
          494 614 101 callgsubr
          174 48 -29 -78 -100 -71 -52 -84 -75 -30 5 12 -40 hvcurveto
          -17 -75 rlineto
          -13 51 59 -5 68 hhcurveto
          178 96 103 132 93 66 callgsubr
        </CharString>
        <CharString name="five.dnom">
          -94 -12 30 callgsubr
          429 -61 callsubr
          endchar
        </CharString>
        <CharString name="five.numr">
          -94 164 30 callgsubr
          605 -61 callsubr
          endchar
        </CharString>
        <CharString name="five.osf">
          3 -100 77 259 73 139 80 hstem
          305 135 vstem
          478 528 101 callgsubr
          176 46 -29 -81 -97 -66 -52 -103 -28 -59 4 10 -44 hvcurveto
          -17 -72 rlineto
          -13 49 70 -6 47 hhcurveto
          197 89 104 133 92 66 callgsubr
        </CharString>
        <CharString name="fiveeighths">
          469 -4 52 116 57 168 53 100 63 hstemhm
          234 114 241 50 callsubr
          hintmask 1111110010000000
          406 -43 callgsubr
          -26 675 -61 callsubr
          209 -525 rmoveto
          -43 33 -41 102 vhcurveto
          hintmask 1111110100000000
          26 callsubr
          hvcurveto
          hintmask 1111101010000000
          -20 callgsubr
          hintmask 1111110010000000
          47 callsubr
          hintmask 1111101010000000
          -35 callsubr
          hintmask 1111110100000000
          -32 callgsubr
        </CharString>
        <CharString name="fl">
          93 -184 69 105 76 356 70 163 83 hstemhm
          468 77 hintmask 00000000
          hintmask 11111000
          579 713 rmoveto
          14 -8 11 -17 -35 -28 -15 -15 -22 vhcurveto
          16 -37 -63 14 -37 hhcurveto
          -125 -41 -72 -97 -17 hvcurveto
          -13 -70 -97 -27 13 -50 -41 callsubr
          70 450 rlineto
          92 70 -80 hlineto
          13 72 12 72 13 18 62 1 rlinecurve
          19 44 -4 -6 29 hvcurveto
          -33 -157 -83 -418 -21 vvcurveto
          -43 27 -16 39 29 59 8 20 58 vhcurveto
          48 -77 vlineto
          0 111 615 32 vvcurveto
          endchar
        </CharString>
        <CharString name="florin">
          -140 -183 78 411 69 167 76 hstem
          -124 577 vstem
          366 539 rmoveto
          14 -74 rlineto
          57 hlineto
          16 132 rlineto
          13 -45 -29 8 -54 hhcurveto
          -104 -62 -69 -174 -29 hvcurveto
          -96 hlineto
          -13 -69 rlineto
          97 hlineto
          -52 -287 rlineto
          -85 -16 -46 -39 -31 hhcurveto
          -82 hlineto
          -15 -52 rlineto
          -15 23 47 -11 36 hhcurveto
          76 82 42 100 21 hvcurveto
          61 347 rlineto
          149 hlineto
          12 69 rlineto
          -148 hlineto
          145 20 34 22 51 hhcurveto
          9 11 -1 -2 6 hvcurveto
          endchar
        </CharString>
        <CharString name="four">
          3 135 70 hstem
          -18 496 vstem
          237 hmoveto
          124 hlineto
          24 135 48 callgsubr
          -24 -135 rlineto
          -135 205 79 callsubr
        </CharString>
        <CharString name="four.dnom">
          -94 79 61 hstem
          -5 374 vstem
          184 hmoveto
          -42 callsubr
        </CharString>
        <CharString name="four.numr">
          -94 251 61 hstem
          -5 374 vstem
          184 172 rmoveto
          -42 callsubr
        </CharString>
        <CharString name="four.osf">
          3 51 70 hstem
          -34 496 vstem
          220 -90 rmoveto
          124 hlineto
          25 141 48 callgsubr
          -25 -141 rlineto
          -134 211 79 callsubr
        </CharString>
        <CharString name="fraction">
          -327 -70 717 hstem
          -68 316 vstem
          15 -43 callgsubr
          endchar
        </CharString>
        <CharString name="g">
          14 callsubr
          hstem
          24 135 vstem
          285 92 -99 callgsubr
        </CharString>
        <CharString name="g_tilde.loclGUA">
          14 callsubr
          78 59 callsubr
          24 135 hintmask 11110100
          504 697 -52 callsubr
          hintmask 11101100
          -55 callsubr
          hintmask 11110100
          38 80 -64 callsubr
          -219 -605 -99 callgsubr
        </CharString>
        <CharString name="gbreve">
          14 callsubr
          76 76 hstem
          24 135 44 63 vstem
          306 591 -103 callsubr
          -21 -499 -99 callgsubr
        </CharString>
        <CharString name="gcaron">
          14 callsubr
          hstem
          24 135 vstem
          233 -72 callgsubr
          52 -651 -99 callgsubr
        </CharString>
        <CharString name="gcircumflex">
          14 callsubr
          hstem
          24 135 vstem
          420 575 -87 callsubr
          -135 -483 -99 callgsubr
        </CharString>
        <CharString name="gcommaaccent">
          14 callsubr
          hstem
          24 135 vstem
          351 71 callsubr
          -66 -681 -99 callgsubr
        </CharString>
        <CharString name="gdotaccent">
          14 callsubr
          70 149 hstem
          24 135 99 151 vstem
          333 -66 callgsubr
          -48 -642 -99 callgsubr
        </CharString>
        <CharString name="germandbls">
          132 -9 69 -60 45 591 73 hstemhm
          328 47 -41 112 49 113 -100 111 hintmask 10101100
          421 -9 rmoveto
          hintmask 10101010
          119 79 61 93 hvcurveto
          136 -173 20 79 vvcurveto
          hintmask 01101100
          76 162 -1 130 vvcurveto
          81 -65 43 -124 -149 -80 -62 -148 -39 vhcurveto
          -78 54 callgsubr
          84 434 rlineto
          102 20 36 36 79 hhcurveto
          54 31 -21 -36 hvcurveto
          -86 -161 -22 -127 vvcurveto
          hintmask 10101010
          -133 174 -15 -80 vvcurveto
          -35 -33 -21 -57 vhcurveto
          hintmask 10110100
          -13 -11 1 5 -19 hvcurveto
          hintmask 01110100
          87 -47 vlineto
          hintmask 10101100
          -37 -141 rlineto
          -13 29 52 -8 49 hhcurveto
          endchar
        </CharString>
        <CharString name="grave">
          92 callsubr
          310 576 -77 callgsubr
          endchar
        </CharString>
        <CharString name="grave.case">
          -252 634 166 hstem
          89 255 vstem
          321 634 -77 callgsubr
          endchar
        </CharString>
        <CharString name="gravecomb">
          88 callgsubr
          66 634 -77 callgsubr
          endchar
        </CharString>
        <CharString name="greater">
          3 97 408 hstem
          40 424 vstem
          40 435 rmoveto
          266 -134 -266 -134 42 -70 382 204 -382 204 -42 -70 rlineto
          endchar
        </CharString>
        <CharString name="greaterequal">
          3 0 79 hstem
          43 424 vstem
          43 428 rmoveto
          266 -127 -266 -127 40 -67 384 194 -384 194 -40 -67 rlineto
          418 -349 49 callsubr
          endchar
        </CharString>
        <CharString name="guillemotleft">
          -107 61 357 hstem
          18 393 vstem
          18 239 rmoveto
          106 -178 42 callsubr
          rlineto
          277 -178 rmoveto
          42 callsubr
          106 -178 rlineto
          endchar
        </CharString>
        <CharString name="guillemotright">
          -107 61 357 hstem
          -11 392 vstem
          211 239 rmoveto
          -107 179 101 callsubr
          177 178 rlineto
          65 179 rmoveto
          -59 -34 48 -145 -104 -143 45 -35 175 178 -105 179 rlineto
          endchar
        </CharString>
        <CharString name="guilsinglleft">
          -263 61 357 hstem
          24 222 vstem
          24 239 rmoveto
          106 -178 42 callsubr
          rlineto
          endchar
        </CharString>
        <CharString name="guilsinglright">
          -263 61 357 hstem
          19 221 vstem
          134 418 rmoveto
          101 callsubr
          176 178 -106 179 rlineto
          endchar
        </CharString>
        <CharString name="h">
          58 callgsubr
          243 418 -17 callsubr
        </CharString>
        <CharString name="hbar">
          55 85 callgsubr
          53 60 41 69 hstemhm
          304 207 -138 134 hintmask 00000000
          hintmask 11110100
          433 66 rmoveto
          35 callsubr
          -67 -83 -48 -49 -55 vhcurveto
          2 8 12 71 12 71 rrcurveto
          147 hlineto
          11 60 rlineto
          -148 hlineto
          8 45 5 34 7 vvcurveto
          14 -8 10 -18 -46 -60 -5 -18 -77 vhcurveto
          10 -42 73 -8 -8 -37 rlineto
          -84 hlineto
          -11 -60 rlineto
          84 hlineto
          -115 -578 137 14 63 344 rlineto
          39 callsubr
          hintmask 10101000
          17 callgsubr
          hintmask 11110100
          -78 hlineto
          endchar
        </CharString>
        <CharString name="hcircumflex">
          58 callgsubr
          359 742 -96 callgsubr
          -116 -324 -17 callsubr
        </CharString>
        <CharString name="hookabovecomb">
          -507 641 35 hstemhm
          -105 50 22 76 hintmask 10100000
          -49 676 -60 callgsubr
          hintmask 11100000
          -74 callgsubr
          hintmask 10100000
          22 7 22 15 25 vvcurveto
          31 -33 18 -59 vhcurveto
          endchar
        </CharString>
        <CharString name="hungarumlaut">
          -252 564 183 hstem
          34 345 vstem
          65 -6 callsubr
          161 hmoveto
          -76 callgsubr
          endchar
        </CharString>
        <CharString name="hungarumlaut.case">
          -252 631 183 hstem
          47 345 vstem
          78 -6 callgsubr
          161 hmoveto
          -76 callgsubr
          endchar
        </CharString>
        <CharString name="hyphen">
          -225 203 74 99 callsubr
          74 -265 -74 265 vlineto
          endchar
        </CharString>
        <CharString name="i">
          -198 -10 74 callgsubr
          -99 151 hintmask 11010000
          229 -66 callgsubr
          33 -241 14 callgsubr
        </CharString>
        <CharString name="i.loclTRK">
          -198 -10 74 callgsubr
          -93 151 hintmask 11010000
          235 -66 callgsubr
          27 -241 14 callgsubr
        </CharString>
        <CharString name="iacute">
          46 callgsubr
          300 hintmask 10100000
          120 576 -97 callgsubr
          142 -83 4 callgsubr
          hintmask 11000000
          -92 callsubr
          hintmask 10100000
          15 callsubr
        </CharString>
        <CharString name="iacute_j.loclNLD">
          94 -184 71 103 76 77 callsubr
          -205 620 hintmask 11010000
          140 576 -97 callgsubr
          300 hmoveto
          228 109 rlineto
          23 vlineto
          -99 34 -156 -131 27 -35 rlineto
          -178 -83 4 callgsubr
          hintmask 11100000
          -92 callsubr
          hintmask 11010000
          -26 callgsubr
          312 -1 -84 callsubr
        </CharString>
        <CharString name="ibreve">
          102 callsubr
          525 76 77 callsubr
          -143 63 hintmask 11010000
          213 591 -103 callsubr
          49 -98 14 callgsubr
        </CharString>
        <CharString name="icircumflex">
          102 callsubr
          hstemhm
          46 279 -277 205 hintmask 11000000
          286 575 -87 callsubr
          -24 -82 4 callgsubr
          hintmask 10100000
          -92 callsubr
          hintmask 11000000
          15 callsubr
        </CharString>
        <CharString name="idieresis">
          102 callsubr
          519 145 hstemhm
          2 152 -106 205 -38 150 hintmask 11101000
          154 58 callsubr
          211 hmoveto
          41 -35 32 -38 -42 -35 -32 -41 -42 35 -30 42 38 35 30 42 vhcurveto
          -103 -164 4 callgsubr
          hintmask 11010000
          -92 callsubr
          hintmask 11101000
          15 callsubr
        </CharString>
        <CharString name="igrave">
          46 callgsubr
          262 hintmask 10100000
          287 576 -77 callgsubr
          -25 -83 4 callgsubr
          hintmask 11000000
          -92 callsubr
          hintmask 10100000
          15 callsubr
        </CharString>
        <CharString name="ij">
          94 -184 71 103 74 callgsubr
          -99 151 149 151 hintmask 11101100
          229 -66 callgsubr
          300 hmoveto
          -40 -35 -34 -41 -40 35 -34 40 41 35 34 40 41 -36 34 -40 hvcurveto
          -267 83 callsubr
          hintmask 11110100
          -92 callsubr
          hintmask 11101100
          -26 callgsubr
          312 -1 -84 callsubr
        </CharString>
        <CharString name="imacron">
          102 callsubr
          552 79 77 callsubr
          -205 278 hintmask 01010000
          85 -27 callsubr
          177 -204 4 callgsubr
          hintmask 11100000
          -92 callsubr
          hintmask 01010000
          15 callsubr
        </CharString>
        <CharString name="infinity">
          205 151 72 149 72 hstem
          39 80 475 77 vstem
          356 349 rmoveto
          39 -30 -54 56 -79 hhcurveto
          -127 -27 -86 -59 -61 27 -87 127 79 54 57 39 30 hvcurveto
          -39 30 54 -57 83 hhcurveto
          120 28 83 65 63 -28 82 -120 -83 -54 -56 -39 -30 hvcurveto
          -237 -50 rmoveto
          28 10 45 62 58 44 -49 -24 22 vhcurveto
          -27 -23 -42 -49 -59 hhcurveto
          -62 -10 46 30 hvcurveto
          475 hmoveto
          -30 -10 -46 -64 -60 -43 49 27 -21 vhcurveto
          24 21 43 49 60 hhcurveto
          64 10 -45 -28 hvcurveto
          endchar
        </CharString>
        <CharString name="integral">
          -68 -134 56 723 56 hstem
          164 105 vstem
          164 568 rmoveto
          -587 vlineto
          -44 -23 -15 -21 -12 -12 3 6 -7 vhcurveto
          -12 65 rlineto
          -51 hlineto
          -16 -106 rlineto
          -14 18 65 -10 25 hhcurveto
          79 72 44 89 hvcurveto
          587 vlineto
          44 23 15 21 12 12 -3 -6 7 vhcurveto
          12 -65 rlineto
          51 hlineto
          16 106 rlineto
          14 -18 -65 10 -25 hhcurveto
          -79 -72 -44 -89 hvcurveto
          endchar
        </CharString>
        <CharString name="iogonek">
          -198 96 callsubr
          74 callgsubr
          -203 88 16 151 hintmask 00000000
          hintmask 11101100
          229 -66 callgsubr
          33 83 callsubr
          hintmask 11110000
          -29 -86 -16 -20 -75 hvcurveto
          10 -42 66 -8 rlineto
          -28 -134 -51 -218 -29 vvcurveto
          -47 24 -11 46 vhcurveto
          hintmask 11101000
          8 9 0 1 9 hvcurveto
          -95 -76 1 -58 -17 -47 callgsubr
          -24 -14 15 26 hvcurveto
          hintmask 11110000
          16 5 77 110 58 57 callsubr
          hintmask 11101100
          15 callsubr
        </CharString>
        <CharString name="itilde">
          102 callsubr
          527 59 callsubr
          22 340 -314 205 hintmask 11010000
          362 697 -52 callsubr
          hintmask 10110000
          -55 callsubr
          hintmask 11010000
          38 80 -64 callsubr
          -100 -204 4 callgsubr
          hintmask 11001000
          -92 callsubr
          hintmask 11010000
          15 callsubr
        </CharString>
        <CharString name="j">
          -215 -184 71 698 149 hstem
          145 151 vstem
          220 -66 callgsubr
          45 -242 -84 callsubr
        </CharString>
        <CharString name="jcircumflex">
          -215 -184 71 hstem
          -149 501 vstem
          313 575 -87 callsubr
          -48 -83 -84 callsubr
        </CharString>
        <CharString name="k">
          21 -10 76 363 86 hstem
          397 126 vstem
          169 -33 callgsubr
          22 129 26 148 16 vvcurveto
          13 -7 12 -19 -42 -74 -14 -23 -69 90 callgsubr
          rlineto
          endchar
        </CharString>
        <CharString name="kcommaaccent">
          16 -10 76 363 86 hstem
          392 126 vstem
          164 -33 callgsubr
          22 129 26 148 16 vvcurveto
          13 -7 12 -19 -42 -74 -14 -23 -69 90 callgsubr
          rlineto
          10 -240 -54 callsubr
        </CharString>
        <CharString name="kgreenlandic">
          28 -10 76 363 86 hstem
          404 126 vstem
          176 -33 callgsubr
          4 29 5 22 16 vvcurveto
          13 -7 12 -19 -37 -95 -18 -19 -58 89 callsubr
          endchar
        </CharString>
        <CharString name="l">
          -196 -10 76 hstemhm
          179 77 hintmask 00000000
          hintmask 11000000
          -16 callgsubr
          endchar
        </CharString>
        <CharString name="lacute">
          -196 -10 76 hstemhm
          44 302 -167 77 hintmask 11000000
          105 724 rmoveto
          238 84 3 22 -95 47 -169 -115 23 -38 rlineto
          hintmask 10100000
          185 -11 -61 callgsubr
          endchar
        </CharString>
        <CharString name="lcaron">
          -160 -10 76 461 212 hstemhm
          44 369 -234 77 hintmask 11100000
          311 7 callsubr
          hintmask 11010000
          -21 -26 -61 callgsubr
          endchar
        </CharString>
        <CharString name="lcommaaccent">
          -196 -10 76 hstemhm
          179 77 hintmask 00000000
          hintmask 11000000
          -16 callgsubr
          -219 -949 -54 callsubr
        </CharString>
        <CharString name="ldot">
          -196 -10 76 268 158 hstemhm
          179 77 -6 162 hintmask 00000000
          hintmask 11100000
          -16 callgsubr
          hintmask 11010000
          122 -302 -23 callgsubr
          endchar
        </CharString>
        <CharString name="less">
          3 97 408 hstem
          27 424 vstem
          185 301 rmoveto
          266 134 -42 70 -382 -204 382 -204 42 70 -266 134 rlineto
          endchar
        </CharString>
        <CharString name="lessequal">
          3 0 79 hstem
          427 36 vstem
          201 301 rmoveto
          266 127 -40 67 -384 -194 384 -196 40 69 -266 127 rlineto
          262 -222 49 callsubr
          endchar
        </CharString>
        <CharString name="logicalnot">
          43 262 79 hstem
          407 75 vstem
          67 341 rmoveto
          -79 340 -146 75 225 -415 vlineto
          endchar
        </CharString>
        <CharString name="longs">
          -181 0 45 610 83 hstem
          -28 499 vstem
          348 738 rmoveto
          -127 -35 -51 -188 -34 hvcurveto
          -79 54 callgsubr
          95 500 14 72 11 54 callsubr
        </CharString>
        <CharString name="lozenge">
          -59 -1 615 hstem
          9 433 vstem
          9 307 rmoveto
          192 -308 rlineto
          50 hlineto
          191 308 -191 307 rlineto
          -50 hlineto
          -192 -307 rlineto
          338 hmoveto
          -121 -213 -122 213 122 212 121 -212 rlineto
          endchar
        </CharString>
        <CharString name="lslash">
          -189 -10 76 hstemhm
          -7 362 -172 77 hintmask 11000000
          294 713 rmoveto
          14 -8 11 -17 -44 -84 -17 -20 -58 81 callgsubr
          -9 rlineto
          hintmask 10100000
          0 -28 -136 -28 -143 vhcurveto
          -116 -52 25 -59 75 34 rlineto
          -24 -124 -21 -112 -10 vvcurveto
          -43 27 -16 39 29 59 8 20 58 vhcurveto
          48 -77 vlineto
          0 26 141 26 151 vhcurveto
          120 54 -26 59 -81 -36 rlineto
          hintmask 11000000
          24 137 22 127 14 vvcurveto
          endchar
        </CharString>
        <CharString name="m">
          321 85 callgsubr
          -30 27 hstemhm
          376 139 55 207 -139 135 hintmask 11010100
          450 515 rmoveto
          -61 -82 -43 -54 -57 hvcurveto
          hintmask 10110100
          3 16 7 40 11 vvcurveto
          0 1 27 -28 -41 -89 -17 -20 -59 89 callsubr
          hintmask 11010100
          63 344 rlineto
          35 35 53 40 28 hhcurveto
          20 1 -15 -21 -32 -50 -232 -25 -133 hvcurveto
          137 14 63 344 rlineto
          35 32 57 40 29 hhcurveto
          17 2 -12 -18 hvcurveto
          hintmask 11011000
          -42 -68 -259 -32 vvcurveto
          -66 35 -4 44 36 54 11 17 38 vhcurveto
          48 vlineto
          hintmask 11010100
          -78 hlineto
          28 128 46 222 34 vvcurveto
          46 -15 19 -51 -54 -84 -43 -54 -57 vhcurveto
          2 13 1 13 10 vvcurveto
          35 -26 26 -39 vhcurveto
          endchar
        </CharString>
        <CharString name="macron">
          -252 618 79 hstem
          81 252 vstem
          92 -27 callsubr
          endchar
        </CharString>
        <CharString name="macron.case">
          -252 679 79 hstem
          83 272 vstem
          94 758 -30 callsubr
          endchar
        </CharString>
        <CharString name="minus">
          3 262 79 hstem
          48 414 vstem
          462 341 49 callsubr
          endchar
        </CharString>
        <CharString name="multiply">
          3 113 380 hstem
          52 379 vstem
          242 247 rmoveto
          133 -132 56 57 -133 131 133 132 -58 56 -131 -131 -132 133 -58 -56 133 -134 -133 -132 56 -58 134 134 rlineto
          endchar
        </CharString>
        <CharString name="n">
          -4 callgsubr
          250 418 -82 callgsubr
          endchar
        </CharString>
        <CharString name="nacute">
          -4 callgsubr
          260 576 -97 callgsubr
          -10 -158 -82 callgsubr
          endchar
        </CharString>
        <CharString name="nacute.loclPLK">
          -4 callgsubr
          320 -6 callsubr
          -70 -146 -82 callgsubr
          endchar
        </CharString>
        <CharString name="napostrophe">
          93 85 callgsubr
          12 212 hstemhm
          39 479 -207 207 -138 134 hintmask 10110000
          170 7 callsubr
          hintmask 11100100
          80 -321 rmoveto
          -69 callgsubr
          37 callsubr
          hintmask 10101000
          -45 callgsubr
          hintmask 11100100
          -78 hlineto
          28 128 46 217 37 vvcurveto
          44 -12 23 -50 -45 -80 -29 -68 -77 vhcurveto
          endchar
        </CharString>
        <CharString name="ncaron">
          -4 callgsubr
          253 -72 callgsubr
          -3 -325 -82 callgsubr
          endchar
        </CharString>
        <CharString name="ncommaaccent">
          -4 callgsubr
          250 418 -82 callgsubr
          -43 -654 -54 callsubr
        </CharString>
        <CharString name="nine">
          3 229 80 249 71 hstem
          45 127 190 124 vstem
          49 35 rmoveto
          8 -52 rlineto
          211 2 218 146 299 vvcurveto
          105 -49 94 -136 -204 -52 -172 -66 -100 35 -62 112 66 42 19 20 37 vhcurveto
          -24 -116 -135 -97 -129 -20 rrcurveto
          301 308 rmoveto
          -19 -33 -27 -15 -44 hhcurveto
          -49 -25 31 77 85 46 56 58 68 18 -41 -61 -33 -4 -46 -8 -34 hvcurveto
          endchar
        </CharString>
        <CharString name="nine.dnom">
          -94 -5 21 callgsubr
          44 -59 callgsubr
        </CharString>
        <CharString name="nine.numr">
          -94 167 21 callgsubr
          216 -59 callgsubr
        </CharString>
        <CharString name="nine.osf">
          3 139 80 249 71 hstem
          29 127 190 124 vstem
          33 -48 rmoveto
          8 -52 rlineto
          212 217 162 255 114 -43 108 -154 -178 -66 -143 -96 -90 58 -71 98 57 52 24 15 27 hvcurveto
          -24 -113 -135 -94 -129 -19 rrcurveto
          301 301 rmoveto
          -17 -29 -32 -17 -39 hhcurveto
          -53 -25 31 71 92 41 55 69 62 18 -44 -61 -29 -4 -47 -8 -34 hvcurveto
          endchar
        </CharString>
        <CharString name="notequal">
          3 173 79 98 79 hstem
          48 414 vstem
          48 429 rmoveto
          -79 189 vlineto
          -56 -98 rlineto
          -133 -79 87 hlineto
          -43 -74 68 -40 66 114 rlineto
          236 79 -190 hlineto
          57 98 rlineto
          133 79 -87 hlineto
          43 74 -68 41 -67 -115 rlineto
          -235 hlineto
          endchar
        </CharString>
        <CharString name="ntilde">
          62 85 callgsubr
          78 59 callsubr
          39 479 -207 207 -138 134 hintmask 11101000
          518 697 -52 callsubr
          hintmask 11011000
          -55 callsubr
          hintmask 11101000
          38 80 -64 callsubr
          -268 -279 rmoveto
          -69 callgsubr
          hintmask 11100010
          37 callsubr
          hintmask 11100100
          -45 callgsubr
          hintmask 11100010
          -78 hlineto
          28 128 46 217 37 vvcurveto
          44 -12 23 -50 vhcurveto
          hintmask 11101000
          -45 -80 -29 -68 -77 hvcurveto
          endchar
        </CharString>
        <CharString name="numbersign">
          51 159 76 88 77 hstem
          0 558 vstem
          411 235 rmoveto
          24 88 rlineto
          102 hlineto
          21 77 rlineto
          -102 hlineto
          46 167 rlineto
          -83 hlineto
          -45 -167 rlineto
          -113 hlineto
          49 167 rlineto
          -84 hlineto
          -47 -167 rlineto
          -115 hlineto
          -23 -77 rlineto
          118 hlineto
          -24 -88 rlineto
          -113 hlineto
          -22 -76 rlineto
          114 hlineto
          -47 -167 rlineto
          84 hlineto
          46 167 rlineto
          112 hlineto
          -48 -167 rlineto
          84 hlineto
          46 167 rlineto
          102 hlineto
          25 76 rlineto
          -107 hlineto
          -194 hmoveto
          23 88 rlineto
          114 hlineto
          -25 -88 rlineto
          -112 hlineto
          endchar
        </CharString>
        <CharString name="o">
          -17 callgsubr
          hstem
          -29 callsubr
          vstem
          322 515 -105 callgsubr
          endchar
        </CharString>
        <CharString name="oacute">
          -17 callgsubr
          hstem
          -29 callsubr
          vstem
          237 576 -97 callgsubr
          85 -61 -105 callgsubr
          endchar
        </CharString>
        <CharString name="oacute.loclPLK">
          -17 callgsubr
          hstem
          -29 callsubr
          vstem
          287 -6 callsubr
          35 -49 -105 callgsubr
          endchar
        </CharString>
        <CharString name="obreve">
          -17 callgsubr
          76 76 hstem
          29 135 43 63 70 135 vstem
          310 591 -103 callsubr
          12 -76 -105 callgsubr
          endchar
        </CharString>
        <CharString name="ocircumflex">
          -17 callgsubr
          hstem
          -29 callsubr
          vstem
          411 575 -87 callsubr
          -89 -60 -105 callgsubr
          endchar
        </CharString>
        <CharString name="odieresis">
          -17 callgsubr
          70 145 97 callsubr
          -55 152 79 135 -133 150 hintmask 00000000
          hintmask 11101010
          261 657 -103 callgsubr
          hintmask 11010100
          -170 -142 -105 callgsubr
          endchar
        </CharString>
        <CharString name="oe">
          223 -10 66 -66 -26 callsubr
          -68 68 97 callsubr
          176 121 72 callgsubr
          hintmask 10101111
          322 515 rmoveto
          -176 -117 -136 -237 -89 46 -63 104 70 60 22 41 48 hvcurveto
          hintmask 01110111
          -42 29 47 -21 55 hhcurveto
          -93 callsubr
          44 callgsubr
          -69 -56 -25 -37 -43 hvcurveto
          hintmask 10101111
          34 -22 -38 28 -67 hhcurveto
          -113 -459 rmoveto
          -38 -7 34 52 113 20 192 111 37 8 -34 -52 -135 -26 -170 -105 hvcurveto
          hintmask 10110111
          379 388 6 callgsubr
        </CharString>
        <CharString name="ogonek">
          -252 -236 62 hstem
          -57 88 vstem
          100 hmoveto
          -45 hlineto
          -79 -58 -33 -62 -40 -47 callgsubr
          -27 -11 15 26 33 35 69 34 31 hvcurveto
          endchar
        </CharString>
        <CharString name="ograve">
          -17 callgsubr
          hstem
          -29 callsubr
          vstem
          403 576 -77 callgsubr
          -81 -61 -105 callgsubr
          endchar
        </CharString>
        <CharString name="ohorn">
          -3 -10 66 callsubr
          176 135 -6 98 hintmask 00000000
          hintmask 11101000
          567 556 -55 callgsubr
        </CharString>
        <CharString name="ohungarumlaut">
          -17 callgsubr
          hstem
          -29 callsubr
          vstem
          204 -6 callsubr
          161 hmoveto
          -76 callgsubr
          -43 -49 -105 callgsubr
          endchar
        </CharString>
        <CharString name="omacron">
          -17 callgsubr
          103 79 hstem
          -29 callsubr
          vstem
          197 -27 callsubr
          125 -182 -105 callgsubr
          endchar
        </CharString>
        <CharString name="one">
          73 callsubr
          95 543 -290 -43 -9 -48 rlineto
          157 hlineto
          -79 -451 80 callgsubr
        </CharString>
        <CharString name="one.dnom">
          -94 360 74 callsubr
          360 -34 callsubr
          endchar
        </CharString>
        <CharString name="one.numr">
          -94 532 74 callsubr
          532 -34 callsubr
          endchar
        </CharString>
        <CharString name="one.osf">
          73 callsubr
          81 463 -290 -43 -9 -48 rlineto
          157 hlineto
          -65 -371 80 callgsubr
        </CharString>
        <CharString name="oneeighth">
          419 -4 52 341 53 90 41 hstemhm
          539 50 callsubr
          hintmask 11110010
          364 -43 callgsubr
          -276 602 -34 callsubr
          451 -452 -28 callgsubr
        </CharString>
        <CharString name="onehalf">
          424 0 63.5 306.5 72 90 41 hstem
          768 116 vstem
          345 -43 callgsubr
          -277 602 -34 callsubr
          641 -162 -75 callgsubr
          endchar
        </CharString>
        <CharString name="onequarter">
          424 79 61 392 41 hstem
          78 789 vstem
          355 -43 callgsubr
          -277 602 -34 callsubr
          604 -532 rmoveto
          -42 callsubr
        </CharString>
        <CharString name="ordfeminine">
          -31 callgsubr
        </CharString>
        <CharString name="ordmasculine">
          1 callgsubr
        </CharString>
        <CharString name="oslash">
          -3 -92 681 hstem
          -29 callsubr
          vstem
          135 -6 -24 callsubr
        </CharString>
        <CharString name="oslashacute">
          -3 -92 834 hstem
          -29 callsubr
          vstem
          237 576 -97 callgsubr
          -102 -582 -24 callsubr
        </CharString>
        <CharString name="otilde">
          -17 callgsubr
          78 81 callsubr
          476 697 -52 callsubr
          hintmask 11011100
          -55 callsubr
          hintmask 11101100
          38 80 -64 callsubr
          -154 -182 -105 callgsubr
          endchar
        </CharString>
        <CharString name="p">
          42 -10 70 372 83 hstem
          385 135 vstem
          254 430 rmoveto
          3 14 7 37 10 vvcurveto
          14 -12 11 -18 -45 -88 -17 -21 -59 vhcurveto
          10 -40 74 -9 -123 -623 144 16 28 177 rlineto
          -6 20 19 -3 34 hhcurveto
          192 80 195 192 105 -48 33 -69 -64 -44 -36 -49 -41 hvcurveto
          -6 -370 rmoveto
          -23 -22 2 13 -14 hvcurveto
          51 275 rlineto
          40 28 44 42 40 hhcurveto
          30 3 -42 -29 -130 -27 -171 -110 hvcurveto
          endchar
        </CharString>
        <CharString name="paragraph">
          31 0 45 hstem
          85 484 vstem
          256 223 rmoveto
          76 392 rlineto
          1 -6 -2 0 -10 hhcurveto
          -134 -95 -114 -130 -85 50 -64 102 hvcurveto
          19 hlineto
          202 -179 rmoveto
          -72 26 92 474 82 27 9 43 rlineto
          -193 hlineto
          -106 -543 -97 -26 -19 callsubr
          285 hlineto
          8 44 rlineto
          endchar
        </CharString>
        <CharString name="parenleft">
          -172 -182 897 hstem
          43 113 vstem
          183 265 rmoveto
          23 120 45 228 147 59 -2 43 rcurveline
          -200 -56 -70 -104 -57 -290 rrcurveto
          -17 -85 -9 -68 -57 vvcurveto
          -135 52 -65 126 -37 vhcurveto
          19 41 rlineto
          -65 32 -19 77 84 vvcurveto
          76 16 81 11 56 vhcurveto
          endchar
        </CharString>
        <CharString name="parenright">
          -172 -182 897 hstem
          179 110 vstem
          152 265 rmoveto
          -23 -117 -44 -228 -148 -61 3 -41 rcurveline
          199 53 68 107 56 287 rrcurveto
          17 87 9 71 57 vvcurveto
          133 -51 63 -124 39 vhcurveto
          -20 -43 rlineto
          66 -31 19 -77 -83 vvcurveto
          -77 -16 -82 -11 -57 vhcurveto
          endchar
        </CharString>
        <CharString name="partialdiff">
          64 -10 67 332 67 196 77 hstem
          30 139 207 137 vstem
          57 667 rmoveto
          29 -40 rlineto
          18 48 22 7 44 hhcurveto
          135 20 -85 -139 11 hvcurveto
          2 -44 26 -81 -118 -93 -92 -143 -131 60 -100 167 107 149 53 286 267 -97 133 -187 -66 -60 -17 -45 -46 vhcurveto
          202 -610 rmoveto
          -64 -26 48 116 84 14 84 98 37 30 -18 -20 26 hvcurveto
          1 -30 1 -8 -35 vvcurveto
          -150 -29 -71 -88 vhcurveto
          endchar
        </CharString>
        <CharString name="percent">
          424 -7 86 85 86 107 86 85 86 hstem
          24 79 209 76 154 79 209 76 vstem
          252 614 rmoveto
          -140 -88 -138 -163 -109 61 -40 79 134 90 120 183 108 -58 39 -78 hvcurveto
          155 -614 rmoveto
          199 614 rlineto
          -83 hlineto
          -199 -614 rlineto
          83 hlineto
          -226 250 rmoveto
          -37 -41 18 72 157 74 31 53 51 31 -26 -66 -148 -68 -38 -63 hvcurveto
          589 193 -58 callsubr
        </CharString>
        <CharString name="period">
          -287 -8 158 hstem
          -2 162 vstem
          160 69 -23 callgsubr
          endchar
        </CharString>
        <CharString name="periodcentered">
          -287 182 158 hstem
          43 162 vstem
          205 259 -23 callgsubr
          endchar
        </CharString>
        <CharString name="perthousand">
          817 -7 86 85 86 107 86 85 86 hstemhm
          25 79 209 76 154 79 209 76 29 79 209 76 hintmask 1111111101000000
          253 614 rmoveto
          -140 -88 -138 -163 -109 61 -40 79 134 90 120 183 108 -58 39 -78 hvcurveto
          155 -614 rmoveto
          199 614 rlineto
          -83 hlineto
          -199 -614 rlineto
          83 hlineto
          -226 250 rmoveto
          -37 -41 18 72 157 74 31 53 51 31 -26 -66 -148 -68 -38 -63 hvcurveto
          589 193 rmoveto
          -140 -88 -138 -163 -109 61 -40 79 134 90 120 183 108 -58 39 -78 hvcurveto
          393 hmoveto
          hintmask 1010000011000000
          -140 -88 -138 -163 -109 61 -40 79 134 90 120 183 hvcurveto
          hintmask 1111111101000000
          108 -58 39 -78 vhcurveto
          -464 -364 rmoveto
          -37 -41 18 72 157 74 31 53 51 31 -26 -66 -148 -68 -38 -63 hvcurveto
          hintmask 1010000011000000
          393 hmoveto
          -37 -41 18 72 157 74 31 53 51 31 -26 -66 -148 -68 -38 -63 hvcurveto
          endchar
        </CharString>
        <CharString name="pi">
          158 -8 76 346 107 hstem
          169 104 136 107 57 69 vstem
          87 55 rmoveto
          -43 vlineto
          -12 47 21 -5 37 hhcurveto
          73 8 42 52 hvcurveto
          325 136 -259 vlineto
          -150 53 -13 71 23 45 9 20 42 vhcurveto
          -6 47 rlineto
          -45 hlineto
          -53 -23 29 44 hvcurveto
          273 27 vlineto
          62 37 41 105 hvcurveto
          16 -69 vlineto
          -40 -18 -15 -32 vhcurveto
          -376 hlineto
          -88 -37 -63 -83 hvcurveto
          52 -13 rlineto
          40 18 21 12 47 hhcurveto
          9 -331 hlineto
          -82 -28 rlineto
          endchar
        </CharString>
        <CharString name="plus">
          3 262 79 hstem
          211 79 vstem
          211 45 callgsubr
          endchar
        </CharString>
        <CharString name="plusminus">
          3 0 79 183 79 hstem
          215 79 vstem
          215 45 callgsubr
          247 -262 49 callsubr
          endchar
        </CharString>
        <CharString name="product">
          193 91 callgsubr
          120 135 190 135 vstem
          255 69 rmoveto
          477 190 78 callgsubr
          477 vlineto
          85 23 rlineto
          45 -630 -45 vlineto
          85 -23 rlineto
          78 callgsubr
          endchar
        </CharString>
        <CharString name="q">
          8 -10 83 374 68 hstem
          29 135 vstem
          502 521 rmoveto
          -63 9 -40 -33 rlineto
          10 -30 -27 8 -46 hhcurveto
          -158 -109 -151 -230 -115 65 -29 49 61 39 25 58 42 hvcurveto
          -50 -268 138 15 12 106 rlineto
          0 116 593 1 2 vhcurveto
          -200 -361 rmoveto
          -44 -25 -50 -43 -28 hhcurveto
          -24 -11 20 44 141 29 169 106 26 22 -9 -8 9 hvcurveto
          -93 -19 -34 -177 -1 hhcurveto
          endchar
        </CharString>
        <CharString name="question">
          -127 -13 135 37 43 355 72 hstemhm
          23 139 -101 95 108 126 hintmask 11101100
          241 629 rmoveto
          -81 -55 -26 -17 -29 hvcurveto
          19 -53 rlineto
          0 63 24 39 44 23 -19 -51 -24 -1 -33 -113 -97 vhcurveto
          -60 -51 -29 -31 -31 vvcurveto
          -51 29 -10 53 14 25 3 0 vhcurveto
          7 40 rlineto
          -15 -18 3 18 19 31 22 67 48 hvcurveto
          106 76 30 49 66 vvcurveto
          83 -62 43 -87 vhcurveto
          hintmask 11110100
          -79 -577 rmoveto
          39 -30 31 -39 -36 -34 -31 -39 -37 34 -28 36 39 30 28 37 vhcurveto
          endchar
        </CharString>
        <CharString name="questiondown">
          -127 -126 72 355 43 37 135 hstemhm
          16 126 102 139 -133 95 hintmask 00000000
          hintmask 11111000
          244 451 rmoveto
          -39 30 -31 39 36 34 31 39 37 -34 28 -36 -39 -30 -28 -37 vhcurveto
          -79 -577 rmoveto
          81 55 26 17 29 hvcurveto
          -19 53 rlineto
          0 -63 -24 -39 -44 -23 19 51 24 1 33 113 97 vhcurveto
          hintmask 11110100
          60 51 29 31 31 vvcurveto
          51 -29 10 -53 -14 -25 -3 0 vhcurveto
          -7 -40 rlineto
          15 18 -3 -18 -19 -31 -22 -67 -48 hvcurveto
          -106 -76 -30 -49 -66 vvcurveto
          hintmask 11111000
          -83 62 -43 87 vhcurveto
          endchar
        </CharString>
        <CharString name="quotedbl">
          -207 468 233 hstem
          85 281 63 callsubr
          162 hmoveto
          -10 -233 rlineto
          38 hlineto
          81 233 rlineto
          -109 hlineto
          endchar
        </CharString>
        <CharString name="quotedblbase">
          -147 -124 254 hstem
          -37 360 vstem
          12 -124 29 callgsubr
        </CharString>
        <CharString name="quotedblleft">
          -147 433 254 hstem
          48 361 vstem
          187 687 rmoveto
          -139 -227 24 102 callgsubr
          172 hmoveto
          -138 -227 25 -27 107 22 56 223 -50 9 rlineto
          endchar
        </CharString>
        <CharString name="quotedblright">
          -147 433 254 hstem
          56 360 vstem
          105 433 29 callgsubr
        </CharString>
        <CharString name="quoteleft">
          -320 433 254 hstem
          48 187 vstem
          186 687 rmoveto
          -138 -227 23 102 callgsubr
          endchar
        </CharString>
        <CharString name="quoteright">
          -320 433 254 hstem
          56 187 vstem
          105 433 70 callsubr
          endchar
        </CharString>
        <CharString name="quotesinglbase">
          -312 -116 243 hstem
          -20 173 vstem
          24 -116 rmoveto
          129 214 -17 29 -102 -23 -54 -212 44 -8 rlineto
          endchar
        </CharString>
        <CharString name="quotesingle">
          -367 468 233 hstem
          85 121 63 callsubr
          endchar
        </CharString>
        <CharString name="r">
          85 callsubr
          hstem
          39 408 12 callsubr
          endchar
        </CharString>
        <CharString name="racute">
          85 callsubr
          hstem
          39 408 vstem
          215 576 -97 callgsubr
          29 -180 -77 callsubr
          endchar
        </CharString>
        <CharString name="radical">
          -7 440 52 227 52 hstem
          -2 620 vstem
          515 702 rmoveto
          103 17 rlineto
          52 -170 vlineto
          -178 -633 -98 354 rlineto
          -174 -52 hlineto
          59 -18 140 -437 104 10 214 707 rlineto
          endchar
        </CharString>
        <CharString name="rcaron">
          85 callsubr
          hstem
          39 409 vstem
          205 -72 callgsubr
          39 -347 -77 callsubr
          endchar
        </CharString>
        <CharString name="rcommaaccent">
          85 callsubr
          hstem
          10 437 12 callsubr
          -194 -632 -54 callsubr
        </CharString>
        <CharString name="registered">
          -12 210 33 64 23 110 29 115 29 52 33 hstem
          5 37 111 71 58 74 100 35 vstem
          5 callsubr
          256 -147 rmoveto
          95 23 hlineto
          -27 7 -14 26 -8 19 -6 13 rlinecurve
          -19 40 -2 10 -20 9 rrcurveto
          41 16 18 33 35 vvcurveto
          35 -26 40 -79 vhcurveto
          -131 -24 hlineto
          33 -8 rlineto
          -243 vlineto
          -33 -8 rlineto
          -23 139 23 vlineto
          -35 8 rlineto
          102 5 vlineto
          21 1 -1 -132 47 hvcurveto
          -58 162 rmoveto
          -16 113 hlineto
          2 6 4 0 3 hhcurveto
          31 14 -22 -30 -37 -14 -26 -28 hvcurveto
          endchar
        </CharString>
        <CharString name="ring">
          -252 558 52 107 53 hstem
          93 74 82 74 vstem
          322 -16 callsubr
          endchar
        </CharString>
        <CharString name="ring.case">
          -252 627 47 97 48 hstem
          106 73 82 73 vstem
          333 -44 callgsubr
          endchar
        </CharString>
        <CharString name="s">
          8 callgsubr
          -21 callgsubr
          endchar
        </CharString>
        <CharString name="sacute">
          8 callgsubr
          196 576 -97 callgsubr
          51 -132 -96 callsubr
          endchar
        </CharString>
        <CharString name="sacute.loclPLK">
          8 callgsubr
          245 -6 callsubr
          2 -120 -96 callsubr
          endchar
        </CharString>
        <CharString name="scaron">
          8 callgsubr
          183 -72 callgsubr
          64 -299 -96 callsubr
          endchar
        </CharString>
        <CharString name="scedilla">
          -88 -220 44 167 68 385 71 hstemhm
          56 113 -30 99 22 113 hintmask 11110100
          247 444 rmoveto
          25 30 -4 -8 13 hvcurveto
          9 -81 rlineto
          51 hlineto
          34 134 rlineto
          20 -43 -51 10 -48 hhcurveto
          -134 -77 -64 -107 -59 25 -44 55 -23 hvcurveto
          79 -35 rlineto
          41 -18 4 -16 -20 vvcurveto
          -47 -34 -23 -57 -39 -24 5 8 -15 vhcurveto
          -6 90 rlineto
          -50 hlineto
          -37 -143 rlineto
          hintmask 11101100
          34 -18 46 -7 42 -3 -34 -64 rcurveline
          -68 callgsubr
          17 37 rlineto
          hintmask 11110100
          128 5 78 66 120 vvcurveto
          52 -34 40 -48 21 vhcurveto
          -83 37 rlineto
          -30 13 -9 12 25 vvcurveto
          36 23 26 55 vhcurveto
          endchar
        </CharString>
        <CharString name="scircumflex">
          8 callgsubr
          377 575 -87 callsubr
          -130 -131 -96 callsubr
          endchar
        </CharString>
        <CharString name="scommaaccent">
          8 callgsubr
          -21 callgsubr
          -142 -680 -54 callsubr
        </CharString>
        <CharString name="section">
          -107 -8 61 553 61 hstemhm
          137 94 -5 95 hintmask 11010000
          352 599 rmoveto
          2 -91 rlineto
          56 hlineto
          39 140 rlineto
          0 -48 19 -84 vhcurveto
          hintmask 11100000
          -101 -79 -55 -78 -59 63 -44 143 -223 hvcurveto
          8 9 24 32 46 98 -144 110 51 vvcurveto
          42 48 10 37 vhcurveto
          hintmask 11010000
          14 12 -3 -4 10 hvcurveto
          -250 -450 rmoveto
          -54 hlineto
          -40 -137 rlineto
          0 50 -20 85 99 79 46 79 58 -62 44 -142 224 vhcurveto
          -17 -21 -15 -24 -36 -96 141 -102 -55 vvcurveto
          -50 -49 -6 -32 -15 -11 3 4 -12 vhcurveto
          -5 89 rlineto
          endchar
        </CharString>
        <CharString name="semicolon">
          -300 340 158 hstem
          72 162 vstem
          234 417 -23 callgsubr
          -198 -532 68 callgsubr
        </CharString>
        <CharString name="seven">
          3 527 87 hstem
          61 452 vstem
          98 614 rmoveto
          -15 -87 rlineto
          316 hlineto
          -338 -525 112 -39 340 607 -16 44 rlineto
          -399 hlineto
          endchar
        </CharString>
        <CharString name="seven.dnom">
          -94 351 78 hstem
          38 331 vstem
          49 351 4 callsubr
          endchar
        </CharString>
        <CharString name="seven.numr">
          -94 527 78 hstem
          68 331 vstem
          79 527 4 callsubr
          endchar
        </CharString>
        <CharString name="seven.osf">
          3 441 87 hstem
          52 446 vstem
          83 528 rmoveto
          -15 -87 rlineto
          312 hlineto
          -130 -170 -122 -166 -76 -178 115 -30 rcurveline
          75 205 115 185 141 197 -16 44 rcurveline
          -399 hlineto
          endchar
        </CharString>
        <CharString name="seveneighths">
          449 -4 52 341 53 85 78 hstemhm
          569 50 callsubr
          hintmask 11110010
          385 -43 callgsubr
          -306 597 4 callsubr
          490 -447 -28 callgsubr
        </CharString>
        <CharString name="six">
          -14 callsubr
        </CharString>
        <CharString name="six.dnom">
          -94 -7 25 callgsubr
          249 -60 callsubr
        </CharString>
        <CharString name="six.numr">
          -94 164 25 callgsubr
          420 -60 callsubr
        </CharString>
        <CharString name="six.osf">
          -14 callsubr
        </CharString>
        <CharString name="slash">
          -131 -139 837 hstem
          5 370 vstem
          375 698 rmoveto
          -99 hlineto
          -271 -837 rlineto
          96 hlineto
          274 837 rlineto
          endchar
        </CharString>
        <CharString name="space">
          -352 endchar
        </CharString>
        <CharString name="sterling">
          3 0 69 194 60 235 64 hstem
          -20 545 vstem
          221 179 rmoveto
          17 84 rlineto
          177 hlineto
          21 60 rlineto
          -185 hlineto
          9 44 rlineto
          110 22 20 81 78 hhcurveto
          16 20 -2 -7 16 hvcurveto
          4 -89 rlineto
          53 hlineto
          36 135 rlineto
          15 -42 -52 12 -60 hhcurveto
          -138 -70 -98 -201 -39 hvcurveto
          -89 hlineto
          -22 -60 rlineto
          99 hlineto
          -17 -87 rlineto
          -18 -90 -97 -39 0 vvcurveto
          4 -47 rlineto
          426 hlineto
          56 115 -29 17 -61 -57 -261 -12 44 24 50 32 12 60 rlinecurve
          endchar
        </CharString>
        <CharString name="summation">
          15 -98 98 544 70 hstemhm
          424 58 -45 58 hintmask 00000000
          hintmask 11100000
          424 449 rmoveto
          58 165 -480 -45 hlineto
          226 -325 -232 -312 rlineto
          -30 vlineto
          hintmask 11010000
          499 189 -58 hlineto
          -25 -91 rlineto
          -275 hlineto
          203 262 rlineto
          10 vlineto
          -189 272 rlineto
          hintmask 11100000
          249 hlineto
          24 -95 rlineto
          endchar
        </CharString>
        <CharString name="t">
          -185 8 47 356 70 hstem
          36 316 vstem
          245 411 -40 callsubr
          endchar
        </CharString>
        <CharString name="tbar">
          -185 8 47 193 55 108 70 hstem
          14 338 vstem
          352 411 rmoveto
          70 -94 vlineto
          20 107 rlineto
          -64 hlineto
          -70 -96 -108 -31 12 -50 rlineto
          71 hlineto
          -6 -31 -8 -37 -8 -40 rrcurveto
          -73 hlineto
          -10 -55 rlineto
          72 hlineto
          -21 -106 -19 -104 -16 vvcurveto
          -26 19 -16 38 32 70 9 19 65 vhcurveto
          47 -91 vlineto
          36 193 rlineto
          104 55 -94 hlineto
          20 108 rlineto
          107 hlineto
          endchar
        </CharString>
        <CharString name="tcaron">
          -185 8 47 356 70 46 61 hstem
          36 379 vstem
          313 7 callsubr
          -68 -328 -40 callsubr
          endchar
        </CharString>
        <CharString name="thorn">
          21 -9 69 372 83 hstem
          364 135 vstem
          149 652 rmoveto
          -149 -847 136 17 5 27 11 63 12 81 rlinecurve
          -1 15 15 -1 18 88 callsubr
          -57 -45 -33 -45 -39 hvcurveto
          13 81 13 75 10 55 rrcurveto
          6 33 4 26 6 vvcurveto
          13 -8 12 -17 -46 -82 -17 -20 -59 81 callgsubr
          -8 rlineto
          71 -299 rmoveto
          39 33 48 40 27 hhcurveto
          100 callsubr
          -26 -19 5 8 -13 hvcurveto
          13 87 15 99 15 94 rrcurveto
          endchar
        </CharString>
        <CharString name="three">
          3 -9 71 487 80 hstemhm
          299 136 -103 132 hintmask 00000000
          hintmask 11010000
          288 629 rmoveto
          -61 -80 -28 -32 -56 hvcurveto
          17 -58 rlineto
          28 66 54 10 28 hhcurveto
          50 26 -13 -43 -65 -46 -59 -133 -21 hvcurveto
          -57 vlineto
          hintmask 11100000
          72 74 -9 -80 -100 -72 -40 -87 -16 -45 1 8 -58 hvcurveto
          -12 -65 rlineto
          -16 50 41 1 65 hhcurveto
          157 113 70 144 64 -42 52 -73 17 hvcurveto
          hintmask 11010000
          74 34 70 61 75 vvcurveto
          75 -48 46 -128 vhcurveto
          endchar
        </CharString>
        <CharString name="three.dnom">
          -94 -7 60 147 47 131 24 callsubr
          442 -48 callsubr
        </CharString>
        <CharString name="three.numr">
          -94 164 60 147 47 131 24 callsubr
          613 -48 callsubr
        </CharString>
        <CharString name="three.osf">
          3 -100 72 487 80 hstemhm
          282 136 -103 132 hintmask 00000000
          hintmask 11010000
          284 539 rmoveto
          -88 -69 -31 -29 -53 hvcurveto
          17 -58 rlineto
          26 62 51 12 40 hhcurveto
          57 14 -24 -34 -62 -46 -60 -133 -21 hvcurveto
          -57 vlineto
          hintmask 11100000
          90 56 -14 -82 -90 -66 -43 -105 -32 -36 4 5 -39 hvcurveto
          -12 -65 rlineto
          -11 44 52 -5 45 hhcurveto
          173 112 73 128 74 -37 43 -78 30 hvcurveto
          hintmask 11010000
          71 33 73 58 82 vvcurveto
          72 -56 46 -107 vhcurveto
          endchar
        </CharString>
        <CharString name="threeeighths">
          459 -4 52 116 60 147 47 -29 53 107 64 hstemhm
          239 112 -91 114 205 50 callsubr
          hintmask 1101110100100000
          411 -43 callgsubr
          hintmask 1110101100100000
          -154 683 -48 callgsubr
          hintmask 1110110100100000
          -65 callgsubr
          hintmask 1101101100100000
          51 25 43 49 52 vvcurveto
          hintmask 1110101100100000
          53 -50 26 -67 vhcurveto
          hintmask 1101110101000000
          322 -533 rmoveto
          -43 33 -41 102 26 callsubr
          vhcurveto
          hintmask 1101110010100000
          -20 callgsubr
          hintmask 1101110101000000
          47 callsubr
          hintmask 1101110010100000
          -35 callsubr
          hintmask 1101110101000000
          -32 callgsubr
        </CharString>
        <CharString name="threequarters">
          424 79 61 24 60 147 47 131 64 hstemhm
          242 112 -91 114 hintmask 10001000
          404 -43 callgsubr
          hintmask 10110100
          -144 683 -48 callgsubr
          hintmask 11101000
          -65 callgsubr
          hintmask 10010100
          51 25 43 49 52 vvcurveto
          hintmask 10110100
          53 -50 26 -67 vhcurveto
          hintmask 10001000
          448 -613 rmoveto
          -42 callsubr
        </CharString>
        <CharString name="tilde">
          -252 593 59 callsubr
          37 340 hintmask 10100000
          377 697 -52 callsubr
          hintmask 01100000
          -55 callsubr
          hintmask 10100000
          38 80 -64 callsubr
          endchar
        </CharString>
        <CharString name="tilde.case">
          -252 655 59 callsubr
          44 349 hintmask 10100000
          393 37 callgsubr
          hintmask 01100000
          -81 callsubr
          hintmask 10100000
          -49 callgsubr
          endchar
        </CharString>
        <CharString name="tildecomb">
          -507 655 59 callsubr
          -211 349 hintmask 10100000
          138 37 callgsubr
          hintmask 01100000
          -81 callsubr
          hintmask 10100000
          -49 callgsubr
          endchar
        </CharString>
        <CharString name="trademark">
          358 280 27 294 46 hstem
          140 83 172 52 255 84 vstem
          293 601 rmoveto
          15 -48 rlineto
          39 hlineto
          3 94 rlineto
          -336 hlineto
          4 -94 rlineto
          39 hlineto
          15 49 rlineto
          68 -282 hlineto
          -47 -13 rlineto
          -27 177 27 vlineto
          -47 13 rlineto
          281 70 vlineto
          151 -281 rmoveto
          6 212 99 -260 61 8 88 260 8 -220 -45 -13 rlineto
          -27 179 27 vlineto
          -49 13 -10 287 48 12 rlineto
          28 -149 vlineto
          -85 -252 -90 252 rlineto
          -151 -28 hlineto
          47 -12 -12 -287 -45 -13 rlineto
          -27 148 27 vlineto
          -48 13 rlineto
          endchar
        </CharString>
        <CharString name="two">
          3 0 81.5 462.5 85 hstem
          345 143 vstem
          -20 70 rmoveto
          11 -70 rlineto
          424 100 callgsubr
          -54 -80 -237 -13 rlineto
          250 196 130 77 147 vvcurveto
          107 -78 27 -85 -118 -55 -29 -28 -62 vhcurveto
          26 -63 rlineto
          18 48 33 17 62 hhcurveto
          54 32 -30 -42 -55 -21 -47 -88 -77 hvcurveto
          -256 -223 rlineto
          endchar
        </CharString>
        <CharString name="two.dnom">
          -94 0 16 callgsubr
          370 -75 callgsubr
          endchar
        </CharString>
        <CharString name="two.numr">
          -94 172 16 callgsubr
          542 -75 callgsubr
          endchar
        </CharString>
        <CharString name="two.osf">
          3 0 82 372 85 hstem
          306 143 vstem
          399 168 rmoveto
          -54 -80 -226 -12 122 79 rlineto
          113 73 95 72 102 vvcurveto
          107 -104 30 -81 -77 -79 -27 -30 -57 vhcurveto
          26 -63 rlineto
          13 35 46 22 55 hhcurveto
          66 27 -31 -40 -54 -48 -47 -86 -69 hvcurveto
          -183 -146 10 -67 rlineto
          416 100 callgsubr
          endchar
        </CharString>
        <CharString name="u">
          65 -10 83 -55 47 -15 callsubr
          hintmask 01110000
          58 440 -90 callgsubr
        </CharString>
        <CharString name="uacute">
          65 -10 83 -55 47 -15 callsubr
          hintmask 01110000
          270 576 -97 callgsubr
          -212 -136 -90 callgsubr
        </CharString>
        <CharString name="ubreve">
          2 callsubr
          526 76 hstemhm
          57 132 52 63 12 205 hintmask 01111000
          344 591 -103 callsubr
          -286 -151 77 callgsubr
          hintmask 10111100
          -71 callgsubr
          hintmask 01111100
          -95 callsubr
          hintmask 10111000
          -90 callsubr
          hintmask 01111000
          69 callgsubr
        </CharString>
        <CharString name="ucircumflex">
          65 -10 83 -55 47 -15 callsubr
          hintmask 01110000
          441 575 -87 callsubr
          -383 -135 -90 callgsubr
        </CharString>
        <CharString name="udieresis">
          2 callsubr
          520 145 hstemhm
          57 132 -35 152 10 205 -134 150 hintmask 00000000
          hintmask 01101010
          306 657 -7 callgsubr
          -479 -217 -21 callsubr
          hintmask 01110100
          -95 callsubr
          hintmask 10110010
          -90 callsubr
          hintmask 10110100
          69 callgsubr
        </CharString>
        <CharString name="ugrave">
          65 -10 83 -55 47 -15 callsubr
          hintmask 01110000
          419 576 -77 callgsubr
          -361 -136 -90 callgsubr
        </CharString>
        <CharString name="uhorn">
          65 -10 83 -55 47 -15 callsubr
          65 98 hintmask 01111000
          468 205 -66 callsubr
        </CharString>
        <CharString name="uhungarumlaut">
          65 -10 83 -55 47 -15 callsubr
          hintmask 01110000
          233 -6 callsubr
          161 hmoveto
          -76 callgsubr
          -336 -124 -90 callgsubr
        </CharString>
        <CharString name="umacron">
          2 callsubr
          553 79 -15 callsubr
          hintmask 10111000
          232 -27 callsubr
          -174 -257 -21 callsubr
          hintmask 01111000
          -95 callsubr
          hintmask 10111000
          -90 callsubr
          69 callgsubr
        </CharString>
        <CharString name="underscore">
          -65 -79 61 hstem
          0 442 vstem
          442 -79 rmoveto
          61 -442 -61 442 vlineto
          endchar
        </CharString>
        <CharString name="uni00A0">
          -327 endchar
        </CharString>
        <CharString name="uni00AD">
          -225 203 60 99 callsubr
          60 -265 -60 265 vlineto
          endchar
        </CharString>
        <CharString name="uni00B2">
          -94 278 16 callgsubr
          648 -75 callgsubr
          endchar
        </CharString>
        <CharString name="uni00B3">
          -94 272 60 147 47 131 24 callsubr
          721 -48 callsubr
        </CharString>
        <CharString name="uni00B5">
          -40 callgsubr
        </CharString>
        <CharString name="uni00B9">
          -94 637 74 callsubr
          637 -34 callsubr
          endchar
        </CharString>
        <CharString name="uni0162">
          -17 -220 44 176 97 callgsubr
          191 99 188 54 vstem
          67 614 rmoveto
          -25 -159 rlineto
          52 hlineto
          36 91 rlineto
          107 hlineto
          -76 callsubr
          125 hlineto
          -39 -73 -68 callgsubr
          22 46 rlineto
          123 34 callsubr
          rlineto
          105 -91 54 hlineto
          37 159 rlineto
          -502 hlineto
          endchar
        </CharString>
        <CharString name="uni0163">
          -185 -220 44 184 47 356 70 hstem
          120 99 vstem
          245 411 rmoveto
          107 70 -94 hlineto
          20 107 rlineto
          -64 hlineto
          -70 -96 -108 -31 12 -50 rlineto
          71 hlineto
          -26 -125 -47 -239 -25 vvcurveto
          -24 16 -16 34 -2 vhcurveto
          -29 -53 -68 callgsubr
          14 29 35 4 46 8 44 13 rlinecurve
          47 -91 vlineto
          66 356 rlineto
          endchar
        </CharString>
        <CharString name="uni018F">
          113 -10 68 214 66 222 69 hstem
          36 147 278 147 vstem
          363 629 rmoveto
          -83 -63 -14 -26 -68 hvcurveto
          -22 -136 rlineto
          56 hlineto
          37 87 rlineto
          16 44 35 4 32 hhcurveto
          103 27 -46 -114 -20 -1 -21 -2 -21 hvcurveto
          -406 hlineto
          -11 -42 -5 -44 -44 vvcurveto
          -11 callgsubr
          193 150 175 235 161 -69 68 -176 vhcurveto
          -84 -571 rmoveto
          -82 -14 54 91 18 1 24 3 27 hvcurveto
          262 hlineto
          -114 -22 -53 -100 -95 hhcurveto
          endchar
        </CharString>
        <CharString name="uni019D">
          162 -184 71 682 45 hstem
          -125 844 vstem
          486 614 rmoveto
          -8 -45 75 -23 -71 -374 -192 442 rlineto
          -185 hlineto
          -8 -45 75 -23 -109 -562 rlineto
          -72 -14 -38 -25 -48 hhcurveto
          -23 -26 6 9 -22 hvcurveto
          -17 -52 rlineto
          -15 22 34 -19 48 hhcurveto
          88 49 62 97 19 hvcurveto
          26 132 43 227 19 104 194 -450 rcurveline
          103 12 106 546 17 callsubr
          endchar
        </CharString>
        <CharString name="uni01C4">
          70 callgsubr
          851 795 -83 callsubr
          -475 -181 -36 callsubr
        </CharString>
        <CharString name="uni01C5">
          53 callgsubr
          814 -72 callgsubr
          -438 -129 -71 callsubr
          hintmask 10011100
          703 -136 -38 callsubr
          hintmask 00111100
          -67 callsubr
          hintmask 10011100
          56 callsubr
          endchar
        </CharString>
        <CharString name="uni01C6">
          41 callsubr
          712 -72 callgsubr
          -309 -91 -56 callgsubr
        </CharString>
        <CharString name="uni01C7">
          311 -150 69 81 86 callgsubr
          -13 886 vstem
          427 hmoveto
          -53 callgsubr
          55 -150 -63 callsubr
        </CharString>
        <CharString name="uni01C8">
          253 -184 71 113 69 500 45 -29 149 hstemhm
          613 151 hintmask 00000000
          hintmask 11011000
          688 -66 callgsubr
          -261 -734 rmoveto
          31 162 rlineto
          -53 hlineto
          -42 -93 rlineto
          -148 hlineto
          hintmask 11101000
          -39 callsubr
          hintmask 11011000
          440 hlineto
          306 492 rmoveto
          15 -6 8 -17 -35 -92 -16 -20 -65 vhcurveto
          10 -41 66 -7 rlineto
          hintmask 11101000
          -87 -447 rlineto
          -72 -13 -40 -25 -45 hhcurveto
          -26 -25 6 9 -22 hvcurveto
          -17 -52 rlineto
          0 58 -34 73 109 59 61 98 18 vhcurveto
          hintmask 11011000
          34 188 63 323 6 vvcurveto
          endchar
        </CharString>
        <CharString name="uni01C9">
          96 -184 71 103 96 callgsubr
          hstem
          179 77 200 151 vstem
          -16 callgsubr
          241 21 -102 callgsubr
          45 -242 -84 callsubr
        </CharString>
        <CharString name="uni01CA">
          512 -150 69 81 41 callgsubr
          1087 11 callgsubr
          197 -764 -63 callsubr
        </CharString>
        <CharString name="uni01CB">
          454 -184 71 113 72 callsubr
          -29 149 hstemhm
          814 151 hintmask 00000000
          hintmask 11011000
          889 -66 callgsubr
          hintmask 11101000
          -403 -120 -88 callsubr
          448 -122 -84 callsubr
        </CharString>
        <CharString name="uni01CC">
          354 -184 71 103 98 callgsubr
          70 149 hstemhm
          311 207 -138 134 200 151 hintmask 11110110
          789 -66 callgsubr
          -539 -316 rmoveto
          -69 callgsubr
          37 callsubr
          hintmask 11111010
          -45 callgsubr
          hintmask 11110110
          -78 hlineto
          28 128 46 217 37 vvcurveto
          44 -12 23 -50 -45 -80 -29 -68 -77 vhcurveto
          584 74 -84 callsubr
        </CharString>
        <CharString name="uni01CD">
          38 callsubr
          255 795 -83 callsubr
          76 -642 -101 callsubr
        </CharString>
        <CharString name="uni01CE">
          -34 callgsubr
          -8 callsubr
          hintmask 10110000
          253 -72 callgsubr
          193 -528 -86 callgsubr
        </CharString>
        <CharString name="uni01CF">
          -150 75 callgsubr
          432 vstem
          154 795 -83 callsubr
          61 -726 rmoveto
          93 477 -88 callgsubr
          rlineto
          endchar
        </CharString>
        <CharString name="uni01D0">
          46 callgsubr
          330 hintmask 10100000
          135 -72 callgsubr
          127 -250 4 callgsubr
          hintmask 11000000
          -92 callsubr
          hintmask 10100000
          15 callsubr
        </CharString>
        <CharString name="uni01D1">
          -23 callsubr
          290 795 -83 callsubr
          -25 -805 -101 callgsubr
          endchar
        </CharString>
        <CharString name="uni01D2">
          -17 callgsubr
          hstem
          -29 callsubr
          vstem
          232 -72 callgsubr
          90 -228 -105 callgsubr
          endchar
        </CharString>
        <CharString name="uni01D3">
          -12 callgsubr
          hstem
          66 136 vstem
          280 795 -83 callsubr
          257 -559 -100 callgsubr
        </CharString>
        <CharString name="uni01D4">
          65 -10 83 -55 47 -15 callsubr
          hintmask 01110000
          266 -72 callgsubr
          -208 -303 -90 callgsubr
        </CharString>
        <CharString name="uni01D5">
          -12 callgsubr
          33 145 65 79 hstemhm
          66 136 4 32 callgsubr
          hintmask 11111010
          309 936 -30 callsubr
          hintmask 11110110
          49 -217 -103 callgsubr
          -52 -483 rmoveto
          60 310 -10 callgsubr
          -233 hlineto
          -9 -45 76 -23 -58 -301 rlineto
          hintmask 11111010
          -107 callsubr
          vhcurveto
          hintmask 11110110
          204 53 162 84 16 hvcurveto
          endchar
        </CharString>
        <CharString name="uni01D6">
          2 callsubr
          460 145 65 79 hstemhm
          57 132 -26 152 1 205 -125 150 hintmask 00011001
          266 814 -30 callsubr
          hintmask 00110101
          49 -217 -103 callgsubr
          hintmask 10011010
          -488 -157 -21 callsubr
          hintmask 01011010
          -95 callsubr
          hintmask 10011001
          -90 callsubr
          hintmask 10011010
          69 callgsubr
        </CharString>
        <CharString name="uni01D7">
          24 callgsubr
          387 812 -97 callgsubr
          hintmask 11101100
          -29 -93 -67 callgsubr
        </CharString>
        <CharString name="uni01D8">
          18 callgsubr
          344 690 -97 callgsubr
          hintmask 01101010
          -29 -93 -7 callgsubr
          -488 -157 -21 callsubr
          hintmask 01110100
          -95 callsubr
          hintmask 10110010
          -90 callsubr
          hintmask 10110100
          69 callgsubr
        </CharString>
        <CharString name="uni01D9">
          24 callgsubr
          316 973 -83 callsubr
          hintmask 11101100
          42 -254 -67 callgsubr
        </CharString>
        <CharString name="uni01DA">
          18 callgsubr
          273 851 -83 callsubr
          hintmask 01101010
          42 -254 -7 callgsubr
          -488 -157 -21 callsubr
          hintmask 01110100
          -95 callsubr
          hintmask 10110010
          -90 callsubr
          hintmask 10110100
          69 callgsubr
        </CharString>
        <CharString name="uni01DB">
          24 callgsubr
          457 812 -77 callgsubr
          hintmask 11101100
          -99 -93 -67 callgsubr
        </CharString>
        <CharString name="uni01DC">
          18 callgsubr
          414 690 -77 callgsubr
          hintmask 01101010
          -99 -93 -7 callgsubr
          -488 -157 -21 callsubr
          hintmask 01110100
          -95 callsubr
          hintmask 10110010
          -90 callsubr
          hintmask 10110100
          69 callgsubr
        </CharString>
        <CharString name="uni01EA">
          -195 62 123 68 502 68 hstem
          36 147 103 88 97 147 vstem
          413 -133 rmoveto
          -28 -11 16 22 44 47 72 41 34 hvcurveto
          102 79 54 141 143 vvcurveto
          78 callsubr
          -11 callgsubr
          33 30 4 8 28 vhcurveto
          -49 -45 -21 -45 -33 vvcurveto
          -36 24 -38 65 60 38 32 30 23 vhcurveto
          -20 22 rlineto
          -14 -22 -21 -8 -20 hhcurveto
          -230 336 rmoveto
          95 29 262 164 75 20 -48 -90 -153 -45 -211 -147 -82 -14 54 91 vhcurveto
          endchar
        </CharString>
        <CharString name="uni01EB">
          -3 -201 62 129 66 callsubr
          10 88 78 135 hintmask 00000000
          hintmask 11111100
          300 -139 rmoveto
          -27 -11 15 26 33 54 81 37 32 hvcurveto
          77 61 45 107 145 vvcurveto
          85 -44 69 -109 vhcurveto
          hintmask 11110100
          -176 -117 -136 -237 -89 46 -63 104 hvcurveto
          hintmask 11111100
          24 23 2 5 21 hvcurveto
          -51 -46 -22 -45 -31 -47 callgsubr
          hintmask 11110100
          -136 281 rmoveto
          113 20 192 111 37 8 -34 -52 -135 -26 -170 -105 -38 -7 34 52 vhcurveto
          endchar
        </CharString>
        <CharString name="uni01F1">
          70 callgsubr
          376 614 -36 callsubr
        </CharString>
        <CharString name="uni01F2">
          53 callgsubr
          376 614 -71 callsubr
          hintmask 10011100
          703 -136 -38 callsubr
          hintmask 00111100
          -67 callsubr
          hintmask 10011100
          56 callsubr
          endchar
        </CharString>
        <CharString name="uni01F3">
          41 callsubr
          403 652 -56 callgsubr
        </CharString>
        <CharString name="uni01F4">
          19 callsubr
          hstem
          36 148 vstem
          342 634 -97 callgsubr
          137 -89 -94 callgsubr
          endchar
        </CharString>
        <CharString name="uni01F5">
          14 callsubr
          hstem
          24 135 vstem
          238 576 -97 callgsubr
          47 -484 -99 callgsubr
        </CharString>
        <CharString name="uni0200">
          -11 callsubr
          580 22 76 callsubr
          275 631 -87 callgsubr
          -105 -478 -101 callsubr
        </CharString>
        <CharString name="uni0201">
          -34 callgsubr
          210 22 -8 callsubr
          hintmask 10111000
          262 564 -87 callgsubr
          23 -349 -81 callgsubr
          vhcurveto
          hintmask 01111100
          -52 callgsubr
          hintmask 10111100
          -84 callgsubr
          hintmask 10111000
          -25 callsubr
          hintmask 01111000
          -98 callgsubr
          endchar
        </CharString>
        <CharString name="uni0202">
          -11 callsubr
          510 76 hstem
          418 63 vstem
          378 798 -91 callgsubr
          -47 -645 -101 callsubr
        </CharString>
        <CharString name="uni0203">
          -34 callgsubr
          142 76 -8 callsubr
          -105 63 hintmask 10111010
          358 733 -91 callgsubr
          88 -518 -81 callgsubr
          vhcurveto
          hintmask 01111100
          -52 callgsubr
          hintmask 10111100
          -84 callgsubr
          hintmask 10111010
          -25 callsubr
          hintmask 01111010
          -98 callgsubr
          endchar
        </CharString>
        <CharString name="uni0204">
          -31 callsubr
          178 22 84 callsubr
          263 631 -87 callgsubr
          -25 -228 -102 callsubr
        </CharString>
        <CharString name="uni0205">
          19 callgsubr
          210 22 hstem
          62 callsubr
          vstem
          209 564 -87 callgsubr
          -50 -49 -104 callgsubr
          endchar
        </CharString>
        <CharString name="uni0206">
          -31 callsubr
          108 76 hstem
          406 63 vstem
          366 798 -91 callgsubr
          33 -395 -102 callsubr
        </CharString>
        <CharString name="uni0207">
          19 callgsubr
          142 76 hstemhm
          62 callsubr
          -102 63 hintmask 00000000
          hintmask 11111010
          305 733 -91 callgsubr
          hintmask 11111100
          15 -218 -104 callgsubr
          endchar
        </CharString>
        <CharString name="uni0208">
          9 callsubr
          178 22 hstem
          -13 414 vstem
          174 631 -87 callgsubr
          -120 -562 rmoveto
          93 477 -88 callgsubr
          rlineto
          endchar
        </CharString>
        <CharString name="uni0209">
          102 callsubr
          659 22 hstemhm
          23 318 -293 205 hintmask 11100000
          144 564 -87 callgsubr
          -43 -71 4 callgsubr
          hintmask 11010000
          -92 callsubr
          hintmask 11100000
          15 callsubr
        </CharString>
        <CharString name="uni020A">
          9 callsubr
          108 76 hstem
          317 63 vstem
          277 798 -91 callgsubr
          -62 -729 rmoveto
          93 477 -88 callgsubr
          rlineto
          endchar
        </CharString>
        <CharString name="uni020B">
          102 callsubr
          591 76 77 callsubr
          27 63 hintmask 11010000
          240 733 -91 callgsubr
          22 -240 4 callgsubr
          hintmask 11110000
          -92 callsubr
          hintmask 11010000
          15 callsubr
        </CharString>
        <CharString name="uni020C">
          -4 callsubr
          164 22 -12 callsubr
          310 631 -87 callgsubr
          -206 -641 -101 callgsubr
          endchar
        </CharString>
        <CharString name="uni020D">
          -17 callgsubr
          210 22 hstem
          -29 callsubr
          vstem
          241 564 -87 callgsubr
          -80 -49 -105 callgsubr
          endchar
        </CharString>
        <CharString name="uni020E">
          -4 callsubr
          94 76 hstemhm
          36 147 270 63 -45 147 hintmask 00000000
          hintmask 11111000
          413 798 -91 callgsubr
          -148 -808 rmoveto
          hintmask 11110100
          229 124 211 217 78 callsubr
          hvcurveto
          hintmask 11111000
          -11 callgsubr
          vhcurveto
          hintmask 11110100
          14 68 -41 callgsubr
        </CharString>
        <CharString name="uni020F">
          -17 callgsubr
          142 76 hstemhm
          -29 callsubr
          -98 63 hintmask 00000000
          hintmask 11110100
          337 733 -91 callgsubr
          hintmask 11111000
          -15 -218 -105 callgsubr
          endchar
        </CharString>
        <CharString name="uni0210">
          34 callgsubr
          178 22 hstem
          422 138 vstem
          285 631 -87 callgsubr
          -85 -631 rmoveto
          -89 callsubr
          endchar
        </CharString>
        <CharString name="uni0211">
          85 callsubr
          208 22 hstem
          39 408 vstem
          195 564 -87 callgsubr
          -112 -168 -77 callsubr
          endchar
        </CharString>
        <CharString name="uni0212">
          34 callgsubr
          108 76 hstemhm
          422 138 -132 63 hintmask 00000000
          hintmask 11110100
          388 798 -91 callgsubr
          -27 -798 rmoveto
          177 hlineto
          8 45 -55 23 -32 183 -2 26 -60 22 rlinecurve
          hintmask 11111000
          81 25 82 56 108 vvcurveto
          78 -50 48 -130 vhcurveto
          -275 hlineto
          -9 -45 -73 callsubr
          284 hlineto
          8 45 -64 24 39 199 rlineto
          19 hlineto
          hintmask 11110100
          44 5 -34 -234 39 hvcurveto
          hintmask 11111000
          -62 323 rmoveto
          -35 hlineto
          44 225 rlineto
          3 10 18 2 13 hhcurveto
          50 23 -20 -47 -98 -50 -65 -73 hvcurveto
          endchar
        </CharString>
        <CharString name="uni0213">
          85 callsubr
          140 76 hstem
          331 63 vstem
          291 733 -91 callgsubr
          -47 -337 -77 callsubr
          endchar
        </CharString>
        <CharString name="uni0214">
          -12 callgsubr
          178 22 hstem
          66 136 vstem
          300 631 -87 callgsubr
          76 -395 -100 callgsubr
        </CharString>
        <CharString name="uni0215">
          2 callsubr
          660 22 -15 callsubr
          hintmask 01111000
          275 564 -87 callgsubr
          -378 -124 77 callgsubr
          hintmask 10111000
          -71 callgsubr
          hintmask 01111000
          -95 callsubr
          hintmask 10111000
          -90 callsubr
          hintmask 01111000
          69 callgsubr
        </CharString>
        <CharString name="uni0216">
          -12 callgsubr
          108 76 hstem
          66 136 241 63 vstem
          403 798 -91 callgsubr
          134 -562 -100 callgsubr
        </CharString>
        <CharString name="uni0217">
          2 callsubr
          592 76 -15 callsubr
          -110 63 hintmask 01110100
          371 733 -91 callgsubr
          -313 -293 77 callgsubr
          hintmask 10111000
          -71 callgsubr
          hintmask 01111000
          -95 callsubr
          hintmask 10110100
          -90 callsubr
          hintmask 01110100
          69 callgsubr
        </CharString>
        <CharString name="uni021A">
          -17 91 callgsubr
          478 54 vstem
          67 614 -35 callgsubr
          81 -850 -54 callsubr
        </CharString>
        <CharString name="uni021B">
          -185 8 47 356 70 hstem
          36 316 vstem
          245 411 -40 callsubr
          -160 -647 -54 callsubr
        </CharString>
        <CharString name="uni0232">
          -2 callsubr
          65.5 79 hstemhm
          39 544 hintmask 10111000
          213 758 -30 callsubr
          154 -190 rmoveto
          hintmask 11011000
          31 callsubr
          hintmask 10111000
          -83 callgsubr
          -9 -46 rlineto
          endchar
        </CharString>
        <CharString name="uni0232.loclGUA">
          16 callsubr
          65 79 hstem
          92 136 vstem
          304 758 -30 callsubr
          282 -418 -97 callsubr
        </CharString>
        <CharString name="uni0233">
          -37 618 79 40 callgsubr
          201 -27 callsubr
          -214 -260 -91 callsubr
          endchar
        </CharString>
        <CharString name="uni0233.loclGUA">
          37 -171 85 105 83 516 79 hstem
          64 132 vstem
          238 -27 callsubr
          92 -585 -92 callgsubr
        </CharString>
        <CharString name="uni0237">
          -215 -184 71 hstem
          -149 414 vstem
          265 492 -84 callsubr
        </CharString>
        <CharString name="uni0259">
          -68 -23 71 155 55 167 77 hstem
          -8 116 167 135 vstem
          119 -23 rmoveto
          203 88 180 168 130 -71 47 -91 -93 -50 -25 -21 -32 hvcurveto
          12 -49 rlineto
          14 37 37 4 31 hhcurveto
          63 22 -38 -67 -26 -1 -13 -3 -23 hvcurveto
          -181 -98 -69 -113 -67 51 -32 76 hvcurveto
          29 71 rmoveto
          -34 -6 19 22 71 64 43 92 hvcurveto
          -98 -17 -43 -57 -56 hhcurveto
          endchar
        </CharString>
        <CharString name="uni0272">
          62 -184 71 103 98 callgsubr
          hstemhm
          311 207 -138 134 hintmask 00000000
          hintmask 11101000
          440 66 rmoveto
          28 128 46 217 37 vvcurveto
          44 -12 23 -50 -45 -80 -29 -68 -77 vhcurveto
          3 16 7 42 10 vvcurveto
          15 -10 11 -18 -44 -84 -18 -19 -60 -7 callsubr
          -441 rlineto
          -72 -13 -40 -25 -45 hhcurveto
          -26 -25 6 9 -22 hvcurveto
          -17 -52 rlineto
          0 58 -34 73 109 59 61 98 18 vhcurveto
          20 108 28 152 22 112 rrcurveto
          39 35 61 37 -37 callgsubr
          hintmask 11101000
          -78 hlineto
          endchar
        </CharString>
        <CharString name="uni02B0">
          -72 270 59 253 73 hstemhm
          253 162 -113 110 hintmask 00000000
          hintmask 11010000
          358 329 rmoveto
          93 callsubr
          -33 -67 -22 -48 -57 vhcurveto
          18 104 17 99 10 vvcurveto
          79 callgsubr
          -96 -483 110 10 46 252 rlineto
          91 callsubr
          hintmask 10100000
          51 callsubr
          endchar
        </CharString>
        <CharString name="uni02BC">
          -252 527 212 hstem
          170 102 vstem
          170 7 callsubr
          endchar
        </CharString>
        <CharString name="uni02C9">
          -252 618 79 hstem
          81 252 vstem
          92 -27 callsubr
          endchar
        </CharString>
        <CharString name="uni02E1">
          -267 291 35 hstemhm
          54 165 hintmask 00000000
          hintmask 11000000
          244 798 rmoveto
          79 callgsubr
          rlineto
          0 -86 -421 -18 vvcurveto
          -32 23 -12 28 22 50 7 14 42 vhcurveto
          35 -56 vlineto
          0 81 449 23 vvcurveto
          endchar
        </CharString>
        <CharString name="uni02E2">
          -177 270 53 277 55 hstem
          68 88 67 87 vstem
          213 600 rmoveto
          18 22 -3 -6 10 hvcurveto
          7 -60 rlineto
          37 hlineto
          25 102 rlineto
          14 -32 -37 8 -35 hhcurveto
          -101 -59 -47 -84 -51 21 -26 43 -17 hvcurveto
          58 -26 rlineto
          30 -13 3 -5 -20 vvcurveto
          -29 -25 -14 -42 -29 -17 4 6 -11 vhcurveto
          -4 66 rlineto
          -37 hlineto
          -27 -108 rlineto
          -16 31 46 -5 36 hhcurveto
          103 63 49 91 47 -26 28 -39 15 hvcurveto
          -60 27 rlineto
          -22 10 -7 6 17 vvcurveto
          24 17 16 40 vhcurveto
          endchar
        </CharString>
        <CharString name="uni0302">
          -507 639 156 hstem
          -194 295 vstem
          71 639 -96 callgsubr
          endchar
        </CharString>
        <CharString name="uni0304">
          -507 679 79 hstem
          -172 272 vstem
          -161 758 -30 callsubr
          endchar
        </CharString>
        <CharString name="uni0306">
          -507 651 76 hstem
          -152 63 vstem
          -49 651 -103 callsubr
          endchar
        </CharString>
        <CharString name="uni0307">
          -507 635 164 hstem
          -120 168 vstem
          48 -38 callgsubr
          endchar
        </CharString>
        <CharString name="uni0308">
          -507 647 145 hstem
          -228 32 callgsubr
          vstem
          -76 719 -103 callgsubr
          endchar
        </CharString>
        <CharString name="uni030A">
          -507 627 47 97 48 hstem
          -149 73 82 73 vstem
          78 -44 callgsubr
          endchar
        </CharString>
        <CharString name="uni030B">
          -507 631 183 hstem
          -208 345 vstem
          -177 -6 callgsubr
          161 hmoveto
          -76 callgsubr
          endchar
        </CharString>
        <CharString name="uni030C">
          -507 639 156 hstem
          -174 295 vstem
          -144 795 -83 callsubr
          endchar
        </CharString>
        <CharString name="uni030F">
          -507 725 22 hstem
          -208 318 vstem
          -87 564 -87 callgsubr
          endchar
        </CharString>
        <CharString name="uni030F.case">
          -507 792 22 hstem
          -217 318 vstem
          -96 631 -87 callgsubr
          endchar
        </CharString>
        <CharString name="uni0311">
          -507 657 76 hstem
          6 63 vstem
          -34 733 -91 callgsubr
          endchar
        </CharString>
        <CharString name="uni0311.case">
          -507 722 76 hstem
          19 63 vstem
          -21 798 -91 callgsubr
          endchar
        </CharString>
        <CharString name="uni031B">
          -507 371 52 hstem
          -175 98 vstem
          -174 530 rmoveto
          -6 -13 rlineto
          3 -13 2 -16 -12 vvcurveto
          -44 -23 -9 -33 vhcurveto
          -41 -52 rlineto
          17 hlineto
          84 94 42 74 15 -4 24 -9 18 hvcurveto
          -84 -14 rlineto
          endchar
        </CharString>
        <CharString name="uni0326">
          -507 -236 212 hstem
          -278 150 vstem
          -238 -236 -54 callsubr
        </CharString>
        <CharString name="uni0327">
          -507 -220 44 hstem
          -202 99 vstem
          -191 -46 rmoveto
          25 52 rlineto
          -46 hlineto
          -43 -79 -68 callgsubr
          endchar
        </CharString>
        <CharString name="uni0328">
          -507 -236 62 hstem
          -312 88 vstem
          -155 hmoveto
          -45 hlineto
          -79 -58 -33 -62 -40 -47 callgsubr
          -27 -11 15 26 33 35 69 34 31 hvcurveto
          endchar
        </CharString>
        <CharString name="uni0394">
          11 callsubr
        </CharString>
        <CharString name="uni03A9">
          -36 callgsubr
        </CharString>
        <CharString name="uni03BC">
          -40 callgsubr
        </CharString>
        <CharString name="uni1E0C">
          134 -1 callgsubr
          40 61 492 61 hstem
          175 151 155 148 vstem
          376 614 -71 callsubr
          35 -110 -102 callgsubr
          endchar
        </CharString>
        <CharString name="uni1E0D">
          32 -1 callgsubr
          30 76 -76 82 374 69 97 callsubr
          -40 151 19 208 hintmask 01011000
          403 652 rmoveto
          -29 -144 3 callsubr
          hvcurveto
          hintmask 00111010
          27 callgsubr
          vhcurveto
          hintmask 01011010
          -50 callsubr
          hintmask 01011000
          73 -8 rlineto
          hintmask 00111000
          -201 -580 -46 callgsubr
          hintmask 11010100
          -3 -112 -102 callgsubr
          endchar
        </CharString>
        <CharString name="uni1E24">
          198 76 callgsubr
          227 66 231 45 hstem
          207 151 vstem
          333 hmoveto
          -46 callsubr
          -51 -40 -102 callgsubr
          endchar
        </CharString>
        <CharString name="uni1E25">
          55 -1 callgsubr
          30 98 callgsubr
          hstemhm
          135 151 18 207 -138 134 hintmask 01110100
          243 418 33 callgsubr
          39 callsubr
          hintmask 01111000
          17 callgsubr
          hintmask 01110100
          -78 hlineto
          35 callsubr
          -67 -83 -48 -49 -55 vhcurveto
          hintmask 11110100
          -33 -458 -102 callgsubr
          endchar
        </CharString>
        <CharString name="uni1E44">
          162 68 callsubr
          21 164 hstemhm
          343 168 hintmask 00000000
          hintmask 11110000
          511 -38 callgsubr
          hintmask 11010000
          -25 -101 -88 callsubr
          endchar
        </CharString>
        <CharString name="uni1E45">
          62 85 callgsubr
          70 149 hstemhm
          290 151 -130 207 -138 134 hintmask 11110000
          365 -66 callgsubr
          -115 -316 rmoveto
          -69 callgsubr
          hintmask 11100100
          37 callsubr
          hintmask 11101000
          -45 callgsubr
          hintmask 11100100
          -78 hlineto
          28 128 46 217 37 vvcurveto
          44 -12 23 -50 vhcurveto
          hintmask 11110000
          -45 -80 -29 -68 -77 hvcurveto
          endchar
        </CharString>
        <CharString name="uni1E5A">
          73 -189 149 40 50 callgsubr
          hstem
          144 151 127 -18 callgsubr
          -80 -363 -102 callgsubr
          endchar
        </CharString>
        <CharString name="uni1E5B">
          -96 -1 callgsubr
          377 180 hstem
          11 151 12 callsubr
          -158 -436 -102 callgsubr
          endchar
        </CharString>
        <CharString name="uni1E62">
          -37 -1 callgsubr
          30 69 500 69 hstemhm
          76 124 -111 151 55 130 hintmask 01110100
          156 -18 callsubr
          hintmask 11101100
          8 -30 -102 callgsubr
          endchar
        </CharString>
</ttFont>
